<svg width="161" height="26" viewBox="0 0 161 26" fill="none" xmlns="http://www.w3.org/2000/svg">
<path d="M20.8555 22.7164C20.7971 22.6581 20.7353 22.605 20.6999 22.5715C19.993 22.9479 19.3126 23.3667 18.5916 23.6672C15.4918 24.9537 12.3885 24.9484 9.31527 23.5664C7.06227 22.5596 5.20037 20.8435 4.0135 18.68C3.22323 17.2891 2.74503 15.7429 2.61207 14.1487C2.61207 14.0586 2.57849 13.972 2.56259 13.8783V12.3762C2.62974 11.9025 2.68276 11.4236 2.77112 10.9535C3.19957 8.71432 4.28096 6.65195 5.87914 5.0261C7.47731 3.40025 9.52081 2.28362 11.7523 1.8168C14.64 1.23537 17.3828 1.66482 19.9188 3.18289C22.803 4.91127 24.6321 7.43314 25.3372 10.7202C25.9381 13.5196 25.5139 16.1987 24.1213 18.7012C23.8545 19.1836 23.8474 19.1783 24.2451 19.5848L27.0161 22.3417C27.0161 22.2198 27.0302 22.0961 27.0285 21.9706C27.0285 18.8037 27.0285 15.6367 27.0285 12.4698C27.0285 12.3797 27.0179 12.2931 27.0108 12.1977V3.63C27.0117 3.53903 27.0064 3.4481 26.9949 3.35785C26.8493 2.41884 26.3713 1.56335 25.648 0.94709C24.9247 0.330826 24.0041 -0.00523927 23.0539 6.17681e-05C16.994 0.0301051 10.9341 0.0177325 4.87416 0.0230343C4.71148 0.0156283 4.54849 0.0197636 4.3864 0.0354063C3.44392 0.164053 2.58037 0.631028 1.95673 1.34929C1.3331 2.06754 0.991919 2.98807 0.996798 3.93927C1.01801 8.39453 0.996798 12.8498 0.996798 17.305C0.996798 17.4146 1.00917 17.5259 1.01624 17.6373C0.99937 17.7261 0.987569 17.8158 0.980893 17.9059C0.980893 19.3197 0.966755 20.7335 0.980893 22.1385C0.980195 22.643 1.07905 23.1427 1.27179 23.6089C1.46454 24.0751 1.74738 24.4988 2.10412 24.8555C2.46086 25.2122 2.88448 25.4951 3.35072 25.6878C3.81695 25.8806 4.31664 25.9794 4.82114 25.9787C10.9129 26.0017 17.0046 25.9911 23.0963 25.9999C23.4151 26.0019 23.7328 25.9633 24.0418 25.8851L23.6177 25.4645L20.8555 22.7164Z" fill="url(#paint0_linear_588_1939)"/>
<path d="M13.9973 21.5551C18.7242 21.5551 22.5561 17.7232 22.5561 12.9963C22.5561 8.26941 18.7242 4.4375 13.9973 4.4375C9.27039 4.4375 5.43848 8.26941 5.43848 12.9963C5.43848 17.7232 9.27039 21.5551 13.9973 21.5551Z" fill="#EC613E"/>
<path d="M18.1148 16.0857C18.0971 15.6332 18.0671 15.1826 18.0565 14.7302C18.0565 14.4262 18.0211 14.1222 18.0105 13.8183C17.9822 12.9682 17.9416 12.1199 17.9027 11.2699C17.8868 10.9058 17.8727 10.5435 17.8462 10.1795C17.8306 10.0259 17.7803 9.87787 17.6992 9.74654C17.6181 9.61521 17.5082 9.50401 17.3778 9.42133C17.2038 9.29651 16.9927 9.23423 16.7787 9.24461L12.1309 9.23047C11.8145 9.23047 11.4964 9.23047 11.1801 9.23047C10.931 9.23834 10.6933 9.3367 10.5115 9.50714C10.3296 9.67759 10.2161 9.90844 10.1922 10.1565C10.1657 10.5011 10.148 10.8457 10.1303 11.1921C10.0808 12.1836 10.0331 13.1768 9.98188 14.17C9.96421 14.5393 9.93593 14.9104 9.92356 15.2798C9.89534 15.5994 9.88472 15.9204 9.89175 16.2412C9.89821 16.3908 9.94061 16.5367 10.0154 16.6665C10.0901 16.7963 10.195 16.9062 10.3212 16.987C10.506 17.1259 10.7335 17.1959 10.9645 17.1849L17.0279 17.2061C17.1757 17.2142 17.3235 17.1905 17.4613 17.1366C17.5991 17.0827 17.7237 16.9999 17.8268 16.8936C17.9298 16.7874 18.0089 16.6603 18.0585 16.5209C18.1082 16.3815 18.1274 16.2331 18.1148 16.0857ZM15.7944 11.6445C15.6931 11.9224 15.5271 12.1722 15.3102 12.3731C15.0932 12.5741 14.8315 12.7206 14.5467 12.8003L14.4442 12.8339C14.152 12.8916 13.851 12.8873 13.5606 12.8215C13.2725 12.7517 13.0046 12.6159 12.7779 12.4248C12.5513 12.2337 12.3721 11.9927 12.2546 11.7205C12.1448 11.4853 12.0938 11.227 12.1061 10.9677C12.1061 10.876 12.1416 10.788 12.2052 10.722C12.2689 10.6561 12.3556 10.6174 12.4472 10.6142C12.5409 10.6142 12.6308 10.6515 12.6971 10.7178C12.7634 10.784 12.8007 10.8739 12.8007 10.9677C12.7984 11.2702 12.9116 11.5621 13.117 11.7842C13.2687 11.951 13.464 12.072 13.6809 12.1336C13.8978 12.1952 14.1276 12.1949 14.3444 12.1328C14.5611 12.0707 14.7561 11.9492 14.9075 11.782C15.0588 11.6148 15.1603 11.4087 15.2006 11.1868C15.2129 11.1233 15.22 11.0589 15.2218 10.9942C15.2236 10.9195 15.2491 10.8472 15.2946 10.7879C15.3401 10.7286 15.4032 10.6852 15.4749 10.664C15.5465 10.6428 15.6231 10.6448 15.6935 10.6699C15.764 10.6949 15.8246 10.7416 15.8668 10.8033L15.8863 10.8298C15.9408 11.1047 15.9074 11.3897 15.7908 11.6445H15.7944Z" fill="white"/>
<path d="M39.3598 5.95508V11.0801H47.1657V5.95508C47.1657 5.22579 47.3307 4.67794 47.6606 4.31153C47.8233 4.13059 48.0239 3.98771 48.2481 3.89303C48.4723 3.79834 48.7146 3.75418 48.9577 3.76368C49.2038 3.7542 49.449 3.79774 49.6768 3.89135C49.9046 3.98496 50.1096 4.12645 50.2779 4.30623C50.616 4.66675 50.7845 5.21637 50.7833 5.95508V20.0242C50.7833 20.7629 50.6131 21.3149 50.2726 21.6801C50.1054 21.8603 49.9015 22.0024 49.6747 22.0969C49.4478 22.1914 49.2033 22.2361 48.9577 22.228C48.7127 22.2385 48.4685 22.1942 48.2428 22.0982C48.0171 22.0021 47.8158 21.8569 47.6535 21.6731C47.3283 21.3031 47.1657 20.7535 47.1657 20.0242V14.0155H39.3598V20.0242C39.3598 20.7629 39.1889 21.3149 38.8473 21.6801C38.6801 21.8603 38.4762 22.0024 38.2494 22.0969C38.0225 22.1914 37.778 22.2361 37.5324 22.228C37.2874 22.2385 37.0431 22.1942 36.8175 22.0982C36.5918 22.0021 36.3905 21.8569 36.2282 21.6731C35.9042 21.3031 35.7422 20.7535 35.7422 20.0242V5.95508C35.7422 5.22579 35.9024 4.67794 36.2229 4.31153C36.3866 4.12845 36.5891 3.98425 36.8157 3.88947C37.0422 3.79468 37.2871 3.75171 37.5324 3.76368C37.7788 3.75418 38.0243 3.7977 38.2523 3.89131C38.4804 3.98491 38.6857 4.12641 38.8543 4.30623C39.1901 4.66675 39.3586 5.21637 39.3598 5.95508Z" fill="white"/>
<path d="M62.5252 3.76301C64.3772 3.76301 65.9678 4.13826 67.2968 4.88876C68.6072 5.62143 69.66 6.74023 70.3117 8.09279C70.9938 9.47714 71.3349 11.103 71.3349 12.9704C71.3503 14.247 71.1612 15.5179 70.7747 16.7347C70.4265 17.8202 69.8539 18.8203 69.0941 19.6701C68.3344 20.5064 67.3922 21.1565 66.3407 21.5699C63.921 22.4525 61.2665 22.4462 58.851 21.5522C57.7959 21.1357 56.8498 20.4834 56.0853 19.6453C55.3247 18.7878 54.7543 17.779 54.4117 16.6852C54.0248 15.4768 53.8333 14.2144 53.8444 12.9457C53.8308 11.6634 54.0303 10.3878 54.4347 9.17082C54.793 8.08663 55.3766 7.09048 56.1471 6.24778C56.906 5.43497 57.8388 4.80424 58.8758 4.40276C60.0406 3.9599 61.2791 3.74278 62.5252 3.76301ZM67.6661 12.9527C67.6932 11.7887 67.4771 10.6318 67.0317 9.55608C66.6646 8.66374 66.0339 7.90475 65.2238 7.38059C64.4143 6.87834 63.4777 6.61889 62.5252 6.63304C61.8379 6.62829 61.1575 6.7686 60.5282 7.04481C59.9148 7.31491 59.3709 7.72102 58.9376 8.23241C58.4593 8.8197 58.1035 9.49694 57.8914 10.2241C57.6248 11.1063 57.4954 12.0242 57.5079 12.9457C57.4957 13.8776 57.625 14.806 57.8914 15.6991C58.1074 16.4465 58.4763 17.141 58.9747 17.7385C59.4132 18.258 59.9628 18.6723 60.5829 18.9508C61.3102 19.2589 62.0993 19.393 62.8875 19.3424C63.6757 19.2918 64.4412 19.0578 65.123 18.6592C65.9414 18.1471 66.5863 17.4 66.9733 16.5155C67.4352 15.5483 67.6661 14.3583 67.6661 12.9457V12.9527Z" fill="white"/>
<path d="M81.3552 14.9702H78.0416V20.0263C78.0416 20.7497 77.8713 21.2976 77.5308 21.6699C77.3625 21.846 77.1603 21.9862 76.9363 22.082C76.7122 22.1778 76.4711 22.2272 76.2275 22.2272C75.9839 22.2272 75.7428 22.1778 75.5187 22.082C75.2947 21.9862 75.0924 21.846 74.9241 21.6699C74.5919 21.2999 74.4258 20.758 74.4258 20.044V6.28236C74.4258 5.48592 74.6084 4.91745 74.9736 4.57696C75.3389 4.23647 75.9191 4.06563 76.7144 4.06445H81.3552C82.7266 4.06445 83.7822 4.1699 84.5221 4.38079C85.2233 4.5704 85.8715 4.91869 86.4166 5.39873C86.95 5.87273 87.3647 6.46535 87.6272 7.12887C87.9132 7.86054 88.0542 8.64082 88.0425 9.42631C88.0425 11.2454 87.4823 12.6233 86.3618 13.5599C85.2414 14.4966 83.5725 14.9667 81.3552 14.9702ZM80.4716 6.78603H78.0416V12.2433H80.4786C81.2014 12.2606 81.9227 12.1701 82.6188 11.9747C83.1397 11.8303 83.5995 11.5201 83.9283 11.0911C84.2463 10.6234 84.4044 10.0655 84.379 9.50053C84.4066 8.79268 84.1553 8.10226 83.6791 7.57776C83.1607 7.04994 82.0939 6.78603 80.4786 6.78603H80.4716Z" fill="white"/>
<path d="M104.632 16.5653C104.646 17.5966 104.355 18.6091 103.796 19.4759C103.197 20.3746 102.347 21.0781 101.352 21.4994C100.28 21.986 99.0087 22.2293 97.5383 22.2293C95.7711 22.2293 94.3178 21.8965 93.1785 21.2308C92.3743 20.7592 91.6954 20.1009 91.1992 19.3116C90.6926 18.5128 90.4387 17.7358 90.4375 16.9806C90.4375 16.7691 90.4796 16.5598 90.5614 16.3649C90.6432 16.1699 90.763 15.9932 90.9139 15.8451C91.0648 15.697 91.2437 15.5805 91.4402 15.5024C91.6366 15.4242 91.8467 15.386 92.0581 15.39C92.4163 15.3809 92.7638 15.5122 93.0265 15.7558C93.3306 16.0613 93.5614 16.4317 93.7016 16.8392C93.8941 17.3397 94.1412 17.8174 94.4386 18.2636C94.727 18.6651 95.11 18.9893 95.5537 19.2073C96.032 19.4559 96.6612 19.5802 97.4411 19.5802C98.5144 19.5802 99.3857 19.3304 100.055 18.8309C100.724 18.3313 101.059 17.7081 101.059 16.9611C101.07 16.6964 101.027 16.4321 100.934 16.1841C100.841 15.936 100.699 15.7093 100.516 15.5173C100.124 15.1279 99.6437 14.8377 99.1165 14.6708C98.5439 14.4764 97.7781 14.2696 96.8191 14.0504C95.7123 13.806 94.6329 13.4508 93.5974 12.9901C92.7816 12.6268 92.0727 12.0603 91.5385 11.3448C91.0307 10.6497 90.7768 9.78724 90.7768 8.75751C90.7627 7.82165 91.0441 6.90518 91.5809 6.13844C92.1665 5.33369 92.9759 4.71908 93.9084 4.37119C95.0513 3.93826 96.267 3.72946 97.4889 3.75618C98.4526 3.73647 99.4131 3.87437 100.332 4.16442C101.059 4.39587 101.735 4.76352 102.324 5.24774C102.802 5.63552 103.196 6.11657 103.482 6.66155C103.713 7.10998 103.838 7.60601 103.846 8.1107C103.846 8.54193 103.683 8.95726 103.39 9.27355C103.251 9.43926 103.076 9.57175 102.879 9.66135C102.682 9.75094 102.468 9.79536 102.252 9.79136C101.908 9.81626 101.569 9.70519 101.306 9.48209C101.022 9.17893 100.784 8.83601 100.599 8.46415C100.327 7.86097 99.929 7.32333 99.4311 6.88776C98.9751 6.50957 98.2441 6.32047 97.2379 6.32047C96.3048 6.32047 95.5502 6.52547 94.9793 6.93547C94.4085 7.34548 94.1205 7.83854 94.1205 8.41644C94.1126 8.74832 94.2152 9.07342 94.4121 9.34071C94.6285 9.61945 94.9029 9.84796 95.2162 10.0105C95.5448 10.193 95.892 10.3399 96.2518 10.4488C96.6052 10.5548 97.1778 10.7103 97.9801 10.9118C98.9047 11.1249 99.8178 11.3851 100.716 11.6912C101.455 11.938 102.155 12.2865 102.798 12.7268C103.363 13.1243 103.822 13.6532 104.137 14.2678C104.485 14.9825 104.655 15.7707 104.632 16.5653Z" fill="white"/>
<path d="M111.342 5.95496V11.08H119.15V5.95496C119.15 5.22568 119.314 4.67783 119.643 4.31141C119.806 4.13067 120.007 3.98792 120.231 3.89325C120.455 3.79859 120.697 3.75431 120.94 3.76356C121.186 3.75406 121.432 3.79759 121.66 3.89119C121.888 3.98479 122.093 4.12629 122.262 4.30611C122.598 4.66663 122.766 5.21625 122.767 5.95496V20.0241C122.767 20.7628 122.597 21.3148 122.255 21.68C122.088 21.8601 121.884 22.0023 121.657 22.0968C121.43 22.1913 121.186 22.236 120.94 22.2279C120.695 22.2384 120.451 22.1941 120.225 22.098C120 22.002 119.798 21.8568 119.636 21.6729C119.312 21.303 119.15 20.7534 119.15 20.0241V14.0154H111.342V20.0241C111.342 20.7628 111.172 21.3148 110.831 21.68C110.664 21.8602 110.46 22.0023 110.233 22.0968C110.005 22.1914 109.761 22.236 109.515 22.2279C109.27 22.2385 109.026 22.1942 108.801 22.0982C108.575 22.0022 108.374 21.8568 108.212 21.6729C107.887 21.303 107.725 20.7534 107.725 20.0241V5.95496C107.725 5.22568 107.885 4.67783 108.205 4.31141C108.369 4.12863 108.572 3.98464 108.798 3.88988C109.025 3.79512 109.27 3.75197 109.515 3.76356C109.761 3.75406 110.007 3.79759 110.235 3.89119C110.463 3.98479 110.668 4.12629 110.837 4.30611C111.175 4.66663 111.343 5.21625 111.342 5.95496Z" fill="white"/>
<path d="M134.507 3.76316C136.36 3.76316 137.95 4.13841 139.279 4.8889C140.585 5.62357 141.634 6.74211 142.283 8.09294C142.966 9.47729 143.307 11.1032 143.307 12.9706C143.323 14.2472 143.134 15.5182 142.746 16.7348C142.398 17.8203 141.826 18.8204 141.066 19.6702C140.306 20.5061 139.365 21.1561 138.314 21.57C135.894 22.4526 133.239 22.4463 130.823 21.5524C129.768 21.1358 128.823 20.4835 128.059 19.6455C127.298 18.7879 126.727 17.7792 126.383 16.6853C125.997 15.477 125.805 14.2146 125.816 12.9458C125.802 11.6634 126.002 10.3876 126.408 9.17096C126.766 8.08688 127.349 7.09073 128.119 6.24792C128.878 5.43549 129.811 4.80482 130.847 4.40291C132.016 3.95889 133.258 3.74176 134.507 3.76316ZM139.648 12.9529C139.676 11.7889 139.459 10.632 139.014 9.55623C138.647 8.66389 138.016 7.90489 137.206 7.38073C136.397 6.87803 135.46 6.61854 134.507 6.63318C133.819 6.6263 133.136 6.76544 132.505 7.04142C131.891 7.31093 131.347 7.71713 130.915 8.22902C130.436 8.81621 130.079 9.49345 129.867 10.2207C129.6 11.1029 129.471 12.0208 129.483 12.9423C129.471 13.8742 129.6 14.8026 129.867 15.6957C130.083 16.4429 130.452 17.1372 130.95 17.7351C131.389 18.2542 131.938 18.6685 132.558 18.9474C133.286 19.2561 134.076 19.3905 134.865 19.3399C135.653 19.2893 136.42 19.055 137.102 18.6558C137.921 18.1442 138.566 17.3969 138.952 16.5121C139.416 15.5472 139.648 14.3584 139.648 12.9458V12.9529Z" fill="white"/>
<path d="M153.338 14.9702H150.026V20.0263C150.026 20.7497 149.855 21.2976 149.513 21.6699C149.345 21.846 149.143 21.9862 148.919 22.082C148.695 22.1778 148.454 22.2272 148.21 22.2272C147.966 22.2272 147.725 22.1778 147.501 22.082C147.277 21.9862 147.075 21.846 146.907 21.6699C146.58 21.3082 146.417 20.768 146.417 20.0493V6.28236C146.417 5.48592 146.6 4.91745 146.965 4.57696C147.33 4.23647 147.911 4.06563 148.707 4.06445H153.346C154.719 4.06445 155.775 4.1699 156.513 4.38079C157.212 4.57124 157.857 4.9195 158.399 5.39873C158.932 5.87315 159.347 6.46561 159.611 7.12887C159.896 7.8609 160.036 8.64101 160.025 9.42631C160.025 11.2454 159.465 12.6233 158.344 13.5599C157.224 14.4966 155.555 14.9667 153.338 14.9702ZM152.454 6.78603H150.026V12.2433H152.461C153.183 12.2603 153.904 12.1698 154.599 11.9747C155.12 11.8303 155.58 11.5201 155.909 11.0911C156.226 10.6231 156.384 10.0654 156.36 9.50053C156.389 8.79281 156.14 8.10177 155.665 7.57599C155.145 7.04935 154.077 6.78603 152.461 6.78603H152.454Z" fill="white"/>
<defs>
<linearGradient id="paint0_linear_588_1939" x1="0.972057" y1="12.9965" x2="27.0196" y2="12.9965" gradientUnits="userSpaceOnUse">
<stop offset="0.01" stop-color="#7673DC"/>
<stop offset="0.14" stop-color="#7673DC"/>
<stop offset="1" stop-color="#7673DC"/>
</linearGradient>
</defs>
</svg>
