<svg width="92" height="15" viewBox="0 0 92 15" fill="none" xmlns="http://www.w3.org/2000/svg">
<path d="M11.4697 13.1056C11.4361 13.072 11.4004 13.0414 11.38 13.022C10.9722 13.2392 10.5796 13.4808 10.1636 13.6541C8.37532 14.3964 6.58495 14.3933 4.81192 13.596C3.51211 13.0151 2.43794 12.0251 1.75321 10.7769C1.29728 9.97446 1.02139 9.08244 0.944689 8.16272C0.944689 8.11072 0.925317 8.06076 0.916141 8.00673V7.14009C0.954885 6.86685 0.985472 6.59054 1.03645 6.31933C1.28363 5.02749 1.90751 3.83766 2.82953 2.89967C3.75156 1.96168 4.9305 1.31747 6.21791 1.04815C7.88389 0.712715 9.46626 0.960471 10.9293 1.83628C12.5933 2.83342 13.6485 4.28835 14.0553 6.18475C14.402 7.79975 14.1573 9.34542 13.3539 10.7891C13.1999 11.0675 13.1959 11.0644 13.4253 11.2989L15.0239 12.8894C15.0239 12.8191 15.0321 12.7477 15.0311 12.6753C15.0311 10.8483 15.0311 9.0212 15.0311 7.19413C15.0311 7.14213 15.025 7.09217 15.0209 7.03711V2.09423C15.0214 2.04175 15.0183 1.98929 15.0117 1.93722C14.9277 1.39549 14.6519 0.901935 14.2346 0.546398C13.8173 0.190861 13.2863 -0.00302266 12.7381 3.56354e-05C9.24196 0.0173683 5.74585 0.0102303 2.24974 0.013289C2.15589 0.00901634 2.06185 0.0114021 1.96834 0.0204267C1.4246 0.0946459 0.926402 0.364055 0.566611 0.778434C0.206819 1.19281 0.00998608 1.72388 0.0128013 2.27266C0.0250361 4.843 0.0128013 7.41333 0.0128013 9.98367C0.0128013 10.0469 0.0199384 10.1111 0.0240166 10.1754C0.014285 10.2266 0.00747681 10.2783 0.00362514 10.3303C0.00362514 11.146 -0.00453143 11.9616 0.00362514 12.7722C0.00322247 13.0633 0.0602539 13.3515 0.171452 13.6205C0.28265 13.8895 0.445829 14.1339 0.65164 14.3397C0.857451 14.5455 1.10185 14.7087 1.37083 14.8199C1.63981 14.9311 1.92809 14.9881 2.21915 14.9877C5.73361 15.001 9.24807 14.9949 12.7625 15C12.9464 15.0011 13.1297 14.9788 13.308 14.9337L13.0633 14.691L11.4697 13.1056Z" fill="url(#paint0_linear_151_1110)"/>
<path d="M7.51298 12.4361C10.24 12.4361 12.4508 10.2254 12.4508 7.49833C12.4508 4.77127 10.24 2.56055 7.51298 2.56055C4.78592 2.56055 2.5752 4.77127 2.5752 7.49833C2.5752 10.2254 4.78592 12.4361 7.51298 12.4361Z" fill="#EC613E"/>
<path d="M9.88834 9.28011C9.87814 9.0191 9.86081 8.75911 9.85469 8.4981C9.85469 8.32273 9.8343 8.14737 9.82819 7.972C9.81187 7.48159 9.78842 6.99219 9.76599 6.50178C9.75682 6.29175 9.74866 6.08274 9.73337 5.8727C9.72437 5.7841 9.69538 5.6987 9.64858 5.62293C9.60178 5.54716 9.53838 5.48301 9.46318 5.43531C9.36277 5.3633 9.24096 5.32736 9.11754 5.33335L6.43607 5.3252C6.25357 5.3252 6.07005 5.3252 5.88755 5.3252C5.74383 5.32974 5.6067 5.38648 5.5018 5.48481C5.3969 5.58315 5.33142 5.71633 5.3176 5.85945C5.30231 6.05827 5.29212 6.25708 5.28192 6.45692C5.25337 7.0289 5.22584 7.6019 5.19628 8.1749C5.18608 8.38799 5.16977 8.6021 5.16263 8.81519C5.14635 8.99959 5.14022 9.18475 5.14428 9.36983C5.14801 9.45617 5.17247 9.54034 5.21559 9.61523C5.25872 9.69012 5.31923 9.75352 5.39203 9.80009C5.49864 9.88026 5.62992 9.92066 5.76316 9.91428L9.2613 9.92652C9.34655 9.93121 9.43181 9.91754 9.51132 9.88644C9.59083 9.85534 9.66274 9.80754 9.72218 9.74626C9.78163 9.68498 9.82722 9.61165 9.85589 9.53123C9.88455 9.45081 9.89562 9.36518 9.88834 9.28011ZM8.54964 6.71793C8.49121 6.87824 8.39545 7.02233 8.27028 7.13828C8.14511 7.25423 7.99413 7.33871 7.82983 7.38473L7.77069 7.4041C7.60213 7.43736 7.42847 7.43493 7.26091 7.39696C7.09471 7.35666 6.94014 7.27831 6.80938 7.16808C6.67863 7.05786 6.57527 6.91876 6.50744 6.76177C6.44411 6.62607 6.41472 6.47701 6.4218 6.32743C6.42177 6.27457 6.44227 6.22375 6.47898 6.18571C6.51569 6.14767 6.56574 6.12537 6.61858 6.12352C6.67266 6.12352 6.72453 6.145 6.76277 6.18324C6.80101 6.22149 6.82249 6.27335 6.82249 6.32743C6.82121 6.50194 6.88647 6.67038 7.00499 6.79847C7.09252 6.89471 7.20521 6.96454 7.33034 7.00008C7.45547 7.03563 7.58805 7.03547 7.71309 6.99962C7.83814 6.96377 7.95066 6.89367 8.03795 6.79722C8.12525 6.70078 8.18382 6.58185 8.20707 6.45386C8.21416 6.41721 8.21826 6.38004 8.2193 6.34273C8.22037 6.29961 8.23507 6.25795 8.26131 6.22372C8.28754 6.18949 8.32395 6.16446 8.3653 6.15223C8.40665 6.13999 8.45082 6.14118 8.49145 6.15562C8.53209 6.17007 8.56709 6.19702 8.59145 6.23261L8.60266 6.24791C8.63412 6.40648 8.61486 6.57092 8.54761 6.71793H8.54964Z" fill="white"/>
<path d="M22.1457 3.4363V6.39305H26.6491V3.4363C26.6491 3.01556 26.7443 2.69949 26.9346 2.4881C27.0285 2.38371 27.1442 2.30128 27.2735 2.24665C27.4029 2.19203 27.5426 2.16655 27.6829 2.17203C27.8249 2.16656 27.9664 2.19168 28.0978 2.24569C28.2292 2.29969 28.3475 2.38132 28.4446 2.48504C28.6396 2.69303 28.7368 3.01012 28.7362 3.4363V11.5531C28.7362 11.9793 28.6379 12.2977 28.4415 12.5084C28.3451 12.6124 28.2274 12.6944 28.0966 12.7489C27.9657 12.8034 27.8246 12.8292 27.6829 12.8245C27.5416 12.8306 27.4007 12.805 27.2705 12.7496C27.1403 12.6942 27.0241 12.6104 26.9305 12.5044C26.7429 12.2909 26.6491 11.9738 26.6491 11.5531V8.08656H22.1457V11.5531C22.1457 11.9793 22.0471 12.2977 21.85 12.5084C21.7535 12.6124 21.6359 12.6944 21.505 12.7489C21.3742 12.8034 21.2331 12.8292 21.0914 12.8245C20.9501 12.8306 20.8091 12.805 20.679 12.7496C20.5488 12.6942 20.4326 12.6104 20.339 12.5044C20.1521 12.2909 20.0586 11.9738 20.0586 11.5531V3.4363C20.0586 3.01556 20.151 2.69949 20.3359 2.4881C20.4304 2.38247 20.5472 2.29928 20.6779 2.2446C20.8086 2.18992 20.9499 2.16512 21.0914 2.17203C21.2335 2.16655 21.3752 2.19166 21.5068 2.24566C21.6383 2.29966 21.7568 2.3813 21.8541 2.48504C22.0478 2.69303 22.145 3.01012 22.1457 3.4363Z" fill="#403689"/>
<path d="M35.51 2.17164C36.5785 2.17164 37.4961 2.38813 38.2628 2.82111C39.0188 3.24381 39.6262 3.88927 40.0022 4.66959C40.3958 5.46826 40.5925 6.40626 40.5925 7.48361C40.6014 8.22012 40.4923 8.9533 40.2693 9.6553C40.0684 10.2815 39.7381 10.8585 39.2997 11.3488C38.8614 11.8313 38.3179 12.2063 37.7112 12.4448C36.3153 12.954 34.7838 12.9504 33.3903 12.4346C32.7815 12.1943 32.2358 11.818 31.7947 11.3345C31.3559 10.8398 31.0268 10.2578 30.8291 9.62675C30.6059 8.92961 30.4954 8.20131 30.5018 7.46934C30.494 6.72956 30.6091 5.99361 30.8424 5.29153C31.0491 4.66604 31.3858 4.09134 31.8303 3.60516C32.2681 3.13623 32.8063 2.77235 33.4046 2.54073C34.0766 2.28523 34.7911 2.15997 35.51 2.17164ZM38.4759 7.47341C38.4915 6.80186 38.3669 6.13443 38.1099 5.5138C37.8981 4.99899 37.5342 4.56111 37.0669 4.25871C36.5998 3.96895 36.0595 3.81927 35.51 3.82743C35.1135 3.82469 34.7209 3.90564 34.3579 4.06499C34.004 4.22082 33.6902 4.45511 33.4402 4.75014C33.1643 5.08896 32.959 5.47968 32.8367 5.8992C32.6828 6.40813 32.6082 6.93771 32.6154 7.46934C32.6083 8.00698 32.6829 8.54258 32.8367 9.05783C32.9613 9.48907 33.1741 9.88973 33.4617 10.2344C33.7146 10.5341 34.0317 10.7732 34.3895 10.9338C34.809 11.1116 35.2643 11.189 35.719 11.1597C36.1737 11.1305 36.6154 10.9956 37.0087 10.7656C37.4809 10.4701 37.8529 10.0391 38.0762 9.52887C38.3427 8.97082 38.4759 8.28431 38.4759 7.46934V7.47341Z" fill="#403689"/>
<path d="M46.3737 8.63552H44.462V11.5525C44.462 11.9699 44.3638 12.2859 44.1674 12.5007C44.0703 12.6023 43.9536 12.6832 43.8243 12.7385C43.6951 12.7938 43.556 12.8223 43.4154 12.8223C43.2749 12.8223 43.1358 12.7938 43.0065 12.7385C42.8773 12.6832 42.7606 12.6023 42.6635 12.5007C42.4718 12.2873 42.376 11.9746 42.376 11.5627V3.62331C42.376 3.16383 42.4813 2.83586 42.692 2.63943C42.9028 2.44299 43.2375 2.34443 43.6963 2.34375H46.3737C47.1649 2.34375 47.7739 2.40459 48.2008 2.52625C48.6053 2.63564 48.9793 2.83658 49.2938 3.11353C49.6015 3.38699 49.8407 3.72888 49.9922 4.11169C50.1572 4.5338 50.2385 4.98396 50.2318 5.43713C50.2318 6.48661 49.9086 7.28153 49.2622 7.8219C48.6157 8.36228 47.6529 8.63348 46.3737 8.63552ZM45.8639 3.91389H44.462V7.06232H45.868C46.285 7.0723 46.7011 7.02007 47.1027 6.90735C47.4033 6.82407 47.6685 6.6451 47.8582 6.39756C48.0417 6.12778 48.1329 5.80587 48.1182 5.47995C48.1341 5.07157 47.9891 4.67326 47.7144 4.37066C47.4154 4.06615 46.7999 3.91389 45.868 3.91389H45.8639Z" fill="#403689"/>
<path d="M59.8025 9.5562C59.8105 10.1512 59.6427 10.7354 59.3202 11.2354C58.9743 11.7539 58.4841 12.1598 57.9102 12.4028C57.2916 12.6836 56.5582 12.8239 55.7099 12.8239C54.6903 12.8239 53.8519 12.6319 53.1946 12.2479C52.7307 11.9758 52.339 11.596 52.0527 11.1406C51.7604 10.6798 51.614 10.2315 51.6133 9.7958C51.6133 9.67382 51.6376 9.55307 51.6848 9.44059C51.7319 9.32812 51.8011 9.22618 51.8881 9.14074C51.9752 9.0553 52.0784 8.98808 52.1917 8.943C52.3051 8.89791 52.4263 8.87588 52.5482 8.87819C52.7549 8.87295 52.9554 8.94868 53.107 9.08923C53.2824 9.26545 53.4155 9.47914 53.4964 9.71423C53.6075 10.003 53.7501 10.2786 53.9216 10.536C54.088 10.7677 54.309 10.9547 54.5649 11.0805C54.8409 11.2239 55.2039 11.2956 55.6538 11.2956C56.2731 11.2956 56.7757 11.1515 57.1618 10.8633C57.5479 10.5751 57.7409 10.2155 57.7409 9.78458C57.7473 9.63184 57.7228 9.47939 57.669 9.33628C57.6153 9.19318 57.5333 9.06236 57.4279 8.9516C57.2014 8.72695 56.9245 8.55954 56.6204 8.46322C56.2901 8.35107 55.8482 8.23178 55.2949 8.10535C54.6564 7.96434 54.0337 7.75939 53.4363 7.49361C52.9657 7.28404 52.5567 6.95721 52.2485 6.54439C51.9555 6.14336 51.809 5.64581 51.809 5.05174C51.8009 4.51182 51.9633 3.98308 52.2729 3.54073C52.6108 3.07646 53.0778 2.72187 53.6157 2.52116C54.2751 2.2714 54.9764 2.15093 55.6814 2.16635C56.2374 2.15498 56.7915 2.23453 57.3219 2.40187C57.7411 2.5354 58.131 2.74751 58.4709 3.02687C58.7466 3.25058 58.9738 3.52811 59.1387 3.84253C59.2724 4.10123 59.3443 4.38741 59.3488 4.67857C59.3488 4.92736 59.2548 5.16697 59.0857 5.34945C59.0055 5.44505 58.9049 5.52149 58.7912 5.57318C58.6776 5.62487 58.5539 5.65049 58.4291 5.64819C58.2309 5.66255 58.035 5.59847 57.8836 5.46976C57.7199 5.29486 57.5825 5.09702 57.4758 4.88249C57.319 4.5345 57.0892 4.22432 56.8019 3.97303C56.5388 3.75484 56.1171 3.64575 55.5366 3.64575C54.9983 3.64575 54.5629 3.76402 54.2336 4.00056C53.9043 4.2371 53.7381 4.52156 53.7381 4.85496C53.7335 5.04643 53.7927 5.23399 53.9063 5.38819C54.0312 5.54901 54.1895 5.68084 54.3702 5.77461C54.5598 5.8799 54.7601 5.96466 54.9677 6.02747C55.1716 6.08864 55.5019 6.17836 55.9648 6.29459C56.4982 6.41756 57.025 6.56763 57.5431 6.74422C57.9693 6.88661 58.3735 7.08771 58.7442 7.34169C59.07 7.57103 59.3353 7.87614 59.517 8.23076C59.7177 8.64305 59.8157 9.09782 59.8025 9.5562Z" fill="#403689"/>
<path d="M63.674 3.43623V6.39299H68.1784V3.43623C68.1784 3.01549 68.2733 2.69942 68.4629 2.48803C68.5569 2.38376 68.6726 2.3014 68.8019 2.24678C68.9313 2.19217 69.071 2.16662 69.2113 2.17196C69.3534 2.16648 69.495 2.19159 69.6266 2.24559C69.7582 2.2996 69.8766 2.38123 69.9739 2.48497C70.1676 2.69296 70.2648 3.01005 70.2655 3.43623V11.553C70.2655 11.9792 70.1669 12.2977 69.9698 12.5084C69.8734 12.6123 69.7558 12.6943 69.6249 12.7488C69.494 12.8034 69.353 12.8291 69.2113 12.8244C69.0699 12.8305 68.929 12.8049 68.7988 12.7495C68.6686 12.6942 68.5525 12.6104 68.4588 12.5043C68.2719 12.2909 68.1784 11.9738 68.1784 11.553V8.08649H63.674V11.553C63.674 11.9792 63.5758 12.2977 63.3793 12.5084C63.2827 12.6123 63.1649 12.6943 63.0338 12.7489C62.9028 12.8034 62.7616 12.8292 62.6197 12.8244C62.4785 12.8306 62.3377 12.805 62.2077 12.7496C62.0777 12.6942 61.9617 12.6104 61.8683 12.5043C61.6807 12.2909 61.5869 11.9738 61.5869 11.553V3.43623C61.5869 3.01549 61.6794 2.69942 61.8642 2.48803C61.9588 2.38258 62.0757 2.2995 62.2064 2.24484C62.337 2.19017 62.4782 2.16527 62.6197 2.17196C62.7619 2.16648 62.9035 2.19159 63.0351 2.24559C63.1666 2.2996 63.2851 2.38123 63.3824 2.48497C63.5775 2.69296 63.6747 3.01005 63.674 3.43623Z" fill="#403689"/>
<path d="M77.0386 2.17173C78.1071 2.17173 79.0247 2.38822 79.7914 2.8212C80.545 3.24504 81.1501 3.89036 81.5247 4.66968C81.9182 5.46834 82.115 6.40635 82.115 7.48369C82.1244 8.22024 82.0153 8.9535 81.7918 9.65538C81.5909 10.2816 81.2606 10.8586 80.8222 11.3489C80.3841 11.8311 79.8409 12.2061 79.2347 12.4449C77.8384 12.9541 76.3066 12.9505 74.9128 12.4347C74.3043 12.1944 73.7589 11.8181 73.3182 11.3346C72.8791 10.8399 72.5498 10.2579 72.3516 9.62683C72.1284 8.92969 72.0179 8.20139 72.0243 7.46942C72.0163 6.72955 72.1317 5.99352 72.3659 5.29162C72.5723 4.66618 72.9086 4.09148 73.3528 3.60525C73.7908 3.13653 74.3289 2.77269 74.927 2.54082C75.601 2.28465 76.3177 2.15938 77.0386 2.17173ZM80.0045 7.4735C80.0201 6.80194 79.8955 6.13452 79.6385 5.51388C79.4267 4.99907 79.0628 4.56119 78.5954 4.25879C78.1286 3.96877 77.5881 3.81907 77.0386 3.82751C76.6412 3.82354 76.2475 3.90381 75.8834 4.06303C75.5293 4.21852 75.2155 4.45287 74.9658 4.74819C74.6895 5.08695 74.4839 5.47767 74.3612 5.89724C74.2073 6.40618 74.1327 6.93575 74.1399 7.46738C74.1329 8.00502 74.2075 8.54062 74.3612 9.05587C74.4862 9.48695 74.699 9.88752 74.9862 10.2325C75.2393 10.532 75.5564 10.771 75.914 10.9319C76.3338 11.11 76.7895 11.1875 77.2446 11.1583C77.6997 11.1291 78.1417 10.994 78.5353 10.7637C79.0077 10.4685 79.3798 10.0374 79.6028 9.52691C79.8706 8.97023 80.0045 8.2844 80.0045 7.46942V7.4735Z" fill="#403689"/>
<path d="M87.9018 8.63552H85.9911V11.5525C85.9911 11.9699 85.8926 12.2859 85.6955 12.5007C85.5984 12.6023 85.4817 12.6832 85.3524 12.7385C85.2232 12.7938 85.0841 12.8223 84.9435 12.8223C84.803 12.8223 84.6639 12.7938 84.5346 12.7385C84.4054 12.6832 84.2887 12.6023 84.1916 12.5007C84.0033 12.292 83.9092 11.9804 83.9092 11.5658V3.62331C83.9092 3.16383 84.0145 2.83586 84.2252 2.63943C84.436 2.44299 84.7711 2.34443 85.2305 2.34375H87.9069C88.6988 2.34375 89.3078 2.40459 89.734 2.52625C90.1368 2.63613 90.509 2.83705 90.8219 3.11353C91.1296 3.38723 91.3691 3.72903 91.5213 4.11169C91.6854 4.53401 91.7665 4.98407 91.7599 5.43713C91.7599 6.48661 91.4367 7.28153 90.7903 7.8219C90.1439 8.36228 89.181 8.63348 87.9018 8.63552ZM87.392 3.91389H85.9911V7.06232H87.3961C87.8128 7.07215 88.2285 7.01992 88.6298 6.90735C88.9303 6.82407 89.1956 6.6451 89.3853 6.39756C89.5683 6.12756 89.6594 5.80581 89.6453 5.47995C89.6623 5.07165 89.5184 4.67297 89.2446 4.36964C88.9448 4.06581 88.3287 3.91389 87.3961 3.91389H87.392Z" fill="#403689"/>
<defs>
<linearGradient id="paint0_linear_151_1110" x1="-0.00147271" y1="7.49796" x2="15.026" y2="7.49796" gradientUnits="userSpaceOnUse">
<stop offset="0.01" stop-color="#7673DC"/>
<stop offset="0.14" stop-color="#7673DC"/>
<stop offset="1" stop-color="#7673DC"/>
</linearGradient>
</defs>
</svg>
