<svg width="18" height="18" viewBox="0 0 18 18" fill="none" xmlns="http://www.w3.org/2000/svg">
<path d="M9 10.4483L1.75862 17.6897C1.55172 17.8966 1.31034 18 1.03448 18C0.758621 18 0.517241 17.8966 0.310345 17.6897C0.103448 17.4828 0 17.2414 0 16.9655C0 16.6897 0.103448 16.4483 0.310345 16.2414L7.55172 9L0.310345 1.75862C0.103448 1.55172 0 1.31034 0 1.03448C0 0.758621 0.103448 0.517241 0.310345 0.310345C0.517241 0.103448 0.758621 0 1.03448 0C1.31034 0 1.55172 0.103448 1.75862 0.310345L9 7.55172L16.2414 0.310345C16.4483 0.103448 16.6897 0 16.9655 0C17.2414 0 17.4828 0.103448 17.6897 0.310345C17.8966 0.517241 18 0.758621 18 1.03448C18 1.31034 17.8966 1.55172 17.6897 1.75862L10.4483 9L17.6897 16.2414C17.8966 16.4483 18 16.6897 18 16.9655C18 17.2414 17.8966 17.4828 17.6897 17.6897C17.4828 17.8966 17.2414 18 16.9655 18C16.6897 18 16.4483 17.8966 16.2414 17.6897L9 10.4483Z" fill="#4D4D64"/>
</svg>
