<svg width="56" height="61" viewBox="0 0 56 61" fill="none" xmlns="http://www.w3.org/2000/svg">
<path d="M28.8256 60.1803C19.7903 60.1803 12.7273 57.416 7.63636 51.8874C2.54545 46.3587 0 39.1812 0 30.3548C0 21.3344 2.56839 14.1569 7.70516 8.82227C12.8878 3.48763 19.7903 0.820312 28.4128 0.820312C36.8059 0.820312 43.502 3.34214 48.5012 8.3858C53.5004 13.381 56 20.7525 56 30.5003C56 36.2714 55.0598 40.7331 53.1794 43.8854C51.2989 47.0377 48.5242 48.6138 44.855 48.6138C42.0573 48.6138 39.9247 47.8864 38.457 46.4315C36.9894 44.9766 36.0262 42.7457 35.5676 39.7389C34.742 41.4363 33.4578 42.8185 31.715 43.8854C30.018 44.9038 28 45.4131 25.6609 45.4131C21.7166 45.4131 18.4832 43.9581 15.9607 41.0483C13.4382 38.1385 12.1769 34.6468 12.1769 30.5731C12.1769 26.4023 13.4382 22.8621 15.9607 19.9523C18.5291 16.994 21.8084 15.5148 25.7985 15.5148C30.3391 15.5148 33.5954 17.4304 35.5676 21.2617V16.2423H40.5897V36.3199C40.5897 41.6546 42.0803 44.3219 45.0614 44.3219C46.8501 44.3219 48.3178 43.2792 49.4644 41.1938C50.611 39.06 51.1843 35.6652 51.1843 31.0095C51.1843 22.2801 49.1663 15.8301 45.1302 11.6593C41.14 7.44012 35.5676 5.33051 28.4128 5.33051C21.1663 5.33051 15.4103 7.60985 11.145 12.1685C6.87961 16.6787 4.74693 22.7651 4.74693 30.4276C4.74693 37.9931 6.85668 44.0794 11.0762 48.6866C15.3415 53.2938 21.2809 55.5974 28.8944 55.5974C33.8477 55.5974 38.4111 54.3607 42.5848 51.8874L44.4423 56.1066C39.8559 58.8224 34.6503 60.1803 28.8256 60.1803ZM19.7445 37.7021C21.4414 39.6419 23.6429 40.6119 26.3489 40.6119C29.0549 40.6119 31.2563 39.6419 32.9533 37.7021C34.6961 35.7137 35.5676 33.3131 35.5676 30.5003C35.5676 27.6875 34.6961 25.3112 32.9533 23.3713C31.2563 21.3829 29.0549 20.3887 26.3489 20.3887C23.6429 20.3887 21.4414 21.3829 19.7445 23.3713C18.0934 25.3112 17.2678 27.6875 17.2678 30.5003C17.2678 33.3616 18.0934 35.7622 19.7445 37.7021Z" fill="#7471D8"/>
</svg>
