<svg width="70" height="70" viewBox="0 0 70 70" fill="none" xmlns="http://www.w3.org/2000/svg">
<path d="M27.708 40.1053C27.708 42.9345 29.8955 45.2095 32.5789 45.2095H38.0621C40.3955 45.2095 42.2913 43.2262 42.2913 40.747C42.2913 38.0928 41.1247 37.1303 39.4039 36.5178L30.6247 33.4553C28.9038 32.8428 27.7372 31.9095 27.7372 29.2262C27.7372 26.7762 29.633 24.7637 31.9663 24.7637H37.4497C40.133 24.7637 42.3205 27.0387 42.3205 29.8678" stroke="#7471D8" stroke-width="3.375" stroke-linecap="round" stroke-linejoin="round"/>
<path d="M35 21.875V48.125" stroke="#7471D8" stroke-width="3.375" stroke-linecap="round" stroke-linejoin="round"/>
<path d="M64.1663 35.0006C64.1663 51.1006 51.0997 64.1673 34.9997 64.1673C18.8997 64.1673 5.83301 51.1006 5.83301 35.0006C5.83301 18.9007 18.8997 5.83398 34.9997 5.83398" stroke="#7471D8" stroke-width="3.375" stroke-linecap="round" stroke-linejoin="round"/>
<path d="M49.583 8.75V20.4167H61.2497" stroke="#7471D8" stroke-width="3.375" stroke-linecap="round" stroke-linejoin="round"/>
<path d="M64.1663 5.83398L49.583 20.4173" stroke="#7471D8" stroke-width="3.375" stroke-linecap="round" stroke-linejoin="round"/>
</svg>
