<svg width="85" height="24" viewBox="0 0 85 24" fill="none" xmlns="http://www.w3.org/2000/svg">
<path d="M4.33118 0.0832017C2.60894 0.808088 0.715168 2.85383 0.117433 5.42694C-0.640931 8.68433 2.51197 10.0599 2.76957 9.61112C3.07269 9.07881 2.2028 8.90014 2.02517 7.21115C1.79661 5.02702 2.80354 2.5868 4.07416 1.51605C4.31117 1.32032 4.29967 1.59654 4.29967 2.10571C4.29967 3.024 4.24875 11.2398 4.24875 12.955C4.24875 15.2769 4.15418 16.008 3.97959 16.7299C3.80801 17.4641 3.53039 17.9592 3.73953 18.1519C3.97655 18.3647 4.98347 17.858 5.56725 17.0385C6.2656 16.0568 6.5117 14.8769 6.55717 13.5964C6.60868 12.0544 6.60568 9.60257 6.60868 8.20685C6.60868 6.92332 6.62869 3.17093 6.58868 0.911806C6.57717 0.359418 5.04953 -0.219265 4.33118 0.0832017ZM83.734 12.2727C83.4878 12.2727 83.3708 12.5318 83.2763 12.9666C82.9501 14.4831 82.607 14.8251 82.1633 14.8251C81.6686 14.8251 81.2249 14.0745 81.1079 12.5721C81.0193 11.3922 81.0333 9.21665 81.1479 7.05264C81.1709 6.60937 81.0503 6.16971 79.8657 5.73499C79.3541 5.55083 78.6127 5.27461 78.2441 6.17218C77.1997 8.70203 76.7935 10.716 76.6959 11.5306C76.6936 11.5733 76.6419 11.5794 76.6328 11.4819C76.5734 10.8282 76.4358 9.6398 76.4188 7.14168C76.4128 6.65876 76.3128 6.24105 75.775 5.90145C75.4289 5.68313 74.3759 5.29167 73.9952 5.75511C73.6691 6.13495 73.289 7.15385 72.8913 8.36239C72.5706 9.34652 72.3476 10.0142 72.3476 10.0142C72.3476 10.0142 72.3498 7.36055 72.3561 6.35328C72.3561 5.97339 72.0984 5.84717 72.0214 5.82398C71.6692 5.72036 70.9739 5.55083 70.6824 5.55083C70.3192 5.55083 70.2332 5.75511 70.2332 6.05145C70.2332 6.08863 70.1731 9.54166 70.1731 11.9563V12.2959C69.9755 13.4069 69.3238 14.9148 68.617 14.9148C67.9101 14.9148 67.5755 14.2843 67.5755 11.4069C67.5755 9.72884 67.6271 8.99837 67.6501 7.78375C67.664 7.08434 67.6925 6.54654 67.6901 6.42279C67.684 6.05145 67.0402 5.86121 66.7426 5.79229C66.4425 5.72036 66.1819 5.69717 65.9764 5.70572C65.6902 5.72337 65.4871 5.91302 65.4871 6.17826V6.5807C65.118 5.9941 64.5196 5.58499 64.1195 5.46728C63.0496 5.1478 61.9305 5.43252 61.0867 6.61788C60.4174 7.56241 60.0137 8.62946 59.8567 10.1636C59.7391 11.2861 59.7767 12.4227 59.9852 13.3837C59.7336 14.4684 59.2699 14.9148 58.7637 14.9148C58.0253 14.9148 57.4937 13.7056 57.5537 11.6136C57.5968 10.2386 57.8684 9.27459 58.1684 7.87581C58.2976 7.28007 58.1915 6.96973 57.9314 6.66727C57.6938 6.39654 57.1846 6.25569 56.4553 6.42521C55.937 6.54901 55.1907 6.68131 54.5124 6.78251C54.5124 6.78251 54.5524 6.61788 54.5869 6.32767C54.7615 4.80509 53.1163 4.92888 52.5925 5.41546C52.2779 5.70572 52.0633 6.04839 51.9833 6.66425C51.8548 7.6429 52.6471 8.10323 52.6471 8.10323C52.387 9.3002 51.7517 10.8654 51.091 11.9965C50.7387 12.6038 50.4696 13.0502 50.121 13.5276C50.1179 13.352 50.1179 13.1733 50.1179 12.9983C50.1118 10.4801 50.1433 8.49775 50.1579 7.78375C50.1724 7.08434 50.2009 6.56058 50.2009 6.43678C50.1949 6.16605 50.0378 6.05996 49.7056 5.93314C49.414 5.81849 49.0679 5.73499 48.7102 5.70572C48.261 5.67156 47.9864 5.91302 47.9949 6.19779V6.5807C47.6233 5.9941 47.025 5.58499 46.6303 5.46728C45.5573 5.1478 44.4389 5.43252 43.5951 6.61788C42.9283 7.56241 42.4875 8.88313 42.3614 10.149C42.2475 11.3349 42.2675 12.3361 42.4275 13.1825C42.256 14.0282 41.7667 14.9148 41.2121 14.9148C40.5052 14.9148 40.1015 14.2843 40.1015 11.4069C40.1015 9.72884 40.153 8.99837 40.1791 7.78375C40.1931 7.08434 40.2191 6.54654 40.2161 6.42279C40.213 6.05145 39.5699 5.86121 39.2692 5.79229C38.9576 5.71789 38.6854 5.69475 38.4793 5.70572C38.2047 5.72886 38.0131 5.97339 38.0131 6.16056V6.5807C37.6415 5.9941 37.0432 5.58499 36.6455 5.46728C35.5756 5.1478 34.4656 5.43865 33.6157 6.61788C33.061 7.3868 32.6118 8.24106 32.3803 10.1349C32.3172 10.6819 32.2857 11.1935 32.2887 11.6715C32.068 13.0294 31.0927 14.5952 30.2973 14.5952C29.8281 14.5952 29.3819 13.6855 29.3819 11.7434C29.3819 9.15935 29.542 5.47583 29.5705 5.11913C29.5705 5.11913 30.5774 5.10143 30.775 5.099C31.2757 5.09594 31.7334 5.10756 32.4003 5.0728C32.7379 5.05574 33.061 3.84414 32.7118 3.69172C32.5573 3.62522 31.4473 3.56486 31.0066 3.55635C30.635 3.5478 29.6075 3.47038 29.6075 3.47038C29.6075 3.47038 29.6996 1.02709 29.7196 0.771C29.7366 0.552084 29.462 0.442969 29.3019 0.376476C28.9152 0.210014 28.569 0.131997 28.1629 0.048446C27.5937 -0.0692205 27.339 0.0460222 27.2905 0.52588C27.216 1.25452 27.176 3.38989 27.176 3.38989C26.7583 3.38989 25.3422 3.30575 24.9269 3.30575C24.5414 3.30575 24.1231 4.97521 24.6584 4.99533C25.2737 5.01852 26.3406 5.0417 27.0499 5.06118C27.0499 5.06118 27.0183 8.80566 27.0183 9.95932V10.316C26.6267 12.3617 25.2561 13.4672 25.2561 13.4672C25.5507 12.1118 24.95 11.0959 23.863 10.2386C23.4623 9.91908 22.6731 9.31725 21.7886 8.66421C21.7886 8.66421 22.3008 8.15509 22.7555 7.13619C23.0762 6.41364 23.0907 5.58252 22.3008 5.40083C20.9963 5.099 19.9233 6.06302 19.6002 7.09289C19.3541 7.88738 19.4832 8.48005 19.9718 9.09285L20.0833 9.23128C19.7918 9.80077 19.3856 10.5691 19.0449 11.1648C18.0925 12.8197 17.3742 14.1264 16.8335 14.1264C16.3988 14.1264 16.4043 12.7996 16.4043 11.5563C16.4043 10.4856 16.4843 8.87151 16.5474 7.20264C16.5674 6.65263 16.2927 6.33617 15.8326 6.05145C15.5519 5.87886 14.9566 5.53926 14.6105 5.53926C14.0958 5.53926 12.6021 5.60813 11.1921 9.70871C11.0145 10.227 10.6653 11.1679 10.6653 11.1679L10.6968 6.23556C10.6968 6.12032 10.6368 6.01121 10.4968 5.93314C10.2592 5.80386 9.62141 5.53926 9.06068 5.53926C8.78848 5.53926 8.6539 5.66607 8.6539 5.91608L8.60843 13.6282C8.60843 14.2154 8.62239 14.9001 8.68 15.1995C8.73697 15.4989 8.83153 15.7434 8.94611 15.8897C9.06068 16.0312 9.19467 16.1404 9.41226 16.1892C9.61536 16.2324 10.7338 16.3733 10.7914 15.9446C10.8629 15.4294 10.8653 14.8745 11.4522 12.7941C12.3675 9.55931 13.5581 7.9825 14.1189 7.42092C14.2189 7.32337 14.3305 7.31729 14.3244 7.47886C14.2989 8.1892 14.2159 9.95932 14.1589 11.4642C14.0073 15.4959 14.7335 16.241 15.7781 16.241C16.5734 16.241 17.6949 15.444 18.8994 13.43C19.6517 12.1721 20.3785 10.9435 20.9048 10.0544C21.2654 10.3934 21.677 10.7593 22.0862 11.1508C23.0392 12.0569 23.3508 12.9203 23.1423 13.738C22.9846 14.3648 22.3869 15.0093 21.3255 14.3824C21.0163 14.2008 20.8848 14.0599 20.5731 13.8526C20.4071 13.7404 20.1494 13.7087 19.9979 13.8239C19.5972 14.1264 19.371 14.5087 19.2395 14.9837C19.1164 15.4471 19.5772 15.6885 20.0548 15.9013C20.464 16.0885 21.3455 16.2525 21.9086 16.2727C24.1031 16.3477 25.8599 15.208 27.0814 12.2727C27.302 14.8081 28.2313 16.244 29.8481 16.244C30.932 16.244 32.0165 14.8367 32.4918 13.4526C32.6258 14.0166 32.8288 14.5056 33.0895 14.9233C34.3371 16.9086 36.757 16.483 37.9701 14.7965C38.3477 14.2727 38.4053 14.0855 38.4053 14.0855C38.5823 15.6776 39.8584 16.2379 40.5883 16.2379C41.4091 16.2379 42.2505 15.8471 42.8421 14.5056C42.9137 14.6526 42.9883 14.791 43.0743 14.9233C44.3189 16.9086 46.7389 16.483 47.9549 14.7965C48.0095 14.7129 48.061 14.644 48.1034 14.5776L48.141 15.6251C48.141 15.6251 47.4457 16.2642 47.0196 16.658C45.1457 18.3879 43.7206 19.7001 43.6151 21.2251C43.4835 23.1732 45.0512 23.8958 46.2412 23.9903C47.5003 24.0915 48.5818 23.3921 49.2449 22.408C49.8287 21.5446 50.2124 19.6885 50.184 17.8525C50.1725 17.1159 50.1549 16.1837 50.1379 15.1794C50.7987 14.4141 51.5425 13.441 52.2238 12.302C52.9701 11.0642 53.7654 9.39774 54.1716 8.10021C54.1716 8.10021 54.8669 8.10629 55.6053 8.05997C55.8429 8.04533 55.9114 8.09472 55.8653 8.26727C55.8138 8.47703 54.933 11.8989 55.7368 14.1782C56.2891 15.7373 57.5275 16.241 58.2659 16.241C59.1267 16.241 59.9511 15.5849 60.3912 14.6123C60.4458 14.719 60.5004 14.8251 60.5634 14.9233C61.8079 16.9086 64.2194 16.48 65.444 14.7965C65.7216 14.4141 65.8762 14.0855 65.8762 14.0855C66.1393 15.7349 67.4154 16.244 68.1446 16.244C68.9085 16.244 69.6292 15.9306 70.2161 14.5373C70.2391 15.1507 70.2761 15.6514 70.3391 15.8093C70.3761 15.9074 70.5937 16.0282 70.7483 16.0885C71.446 16.3477 72.1559 16.2239 72.416 16.169C72.599 16.1318 72.7421 15.9879 72.7597 15.608C72.8106 14.6123 72.7791 12.9404 73.0797 11.6947C73.586 9.61117 74.0552 8.80264 74.2782 8.40263C74.4019 8.17763 74.5444 8.14045 74.5474 8.37643C74.5559 8.85688 74.5819 10.2672 74.779 12.1666C74.9196 13.5593 75.1112 14.3849 75.2597 14.6471C75.6774 15.3922 76.1981 15.4269 76.6188 15.4269C76.8879 15.4269 77.4487 15.3519 77.3996 14.8769C77.3741 14.6471 77.4172 13.2166 77.9118 11.1624C78.238 9.81847 78.7787 8.60691 78.9733 8.16359C79.0479 7.9996 79.0794 8.12641 79.0794 8.15202C79.0363 9.07579 78.9448 12.1001 79.3164 13.752C79.8262 15.994 81.2933 16.244 81.8055 16.244C82.8955 16.244 83.7914 15.4093 84.0915 13.2111C84.1661 12.6812 84.0569 12.2727 83.7339 12.2727M37.9901 10.9147C37.9301 12.077 37.7039 13.0501 37.3438 13.755C36.6855 15.0354 35.39 15.4385 34.8202 13.594C34.4056 12.2617 34.5456 10.4428 34.7202 9.46113C34.9717 8.00504 35.6101 6.97517 36.6055 7.06966C37.6239 7.1709 38.1216 8.49162 37.9901 10.9147ZM47.972 10.9318C47.915 12.0282 47.6319 13.133 47.3227 13.755C46.685 15.044 45.3513 15.447 44.7991 13.594C44.422 12.3245 44.5105 10.6873 44.699 9.65686C44.9427 8.31602 45.5289 7.06966 46.585 7.06966C47.6119 7.06966 48.1181 8.20379 47.972 10.9318M48.2326 18.425C48.2181 20.4311 47.9065 22.1866 47.2366 22.6988C46.2812 23.4238 44.9967 22.8768 45.2628 21.4153C45.4974 20.1202 46.6104 18.7994 48.2357 17.1848C48.2357 17.1848 48.2411 17.5531 48.2325 18.425M65.4671 10.9434C65.4095 12.1495 65.1434 13.0904 64.8148 13.755C64.1765 15.044 62.8549 15.444 62.2912 13.594C61.985 12.5837 61.9705 10.8971 62.1911 9.49039C62.4142 8.05686 63.0411 6.97517 64.0764 7.06966C65.1003 7.16784 65.5786 8.49162 65.4671 10.9434Z" fill="white"/>
</svg>
