<svg width="79" height="20" viewBox="0 0 79 20" fill="none" xmlns="http://www.w3.org/2000/svg">
<path d="M77.5387 17.9826C77.587 17.9831 77.6348 17.9737 77.6793 17.9548C77.7237 17.936 77.7639 17.9082 77.7972 17.8732C77.8305 17.8382 77.8562 17.7967 77.8728 17.7513C77.8895 17.7059 77.8966 17.6575 77.8939 17.6092C77.8939 17.3444 77.7345 17.2178 77.4076 17.2178H76.8793V18.6044H77.078V18H77.3222L77.3277 18.0074L77.7066 18.6044H77.9191L77.5115 17.9865L77.5387 17.9826ZM77.309 17.8437H77.0786V17.375H77.3706C77.5214 17.375 77.6934 17.3997 77.6934 17.5977C77.6934 17.8255 77.5194 17.8437 77.3078 17.8437M0.135742 2.82149H3.06847V13.5328H8.49781V16.2465H0.135742V2.82149ZM9.79439 7.14395H12.6118V16.2415H9.79439V7.14395ZM11.2031 2.62109C11.5263 2.62115 11.8423 2.71731 12.111 2.89742C12.3797 3.07752 12.5892 3.33348 12.7128 3.63293C12.8365 3.93238 12.8688 4.26188 12.8057 4.57975C12.7426 4.89762 12.587 5.18959 12.3584 5.41874C12.1298 5.6479 11.8386 5.80395 11.5215 5.86716C11.2045 5.93036 10.8759 5.89789 10.5773 5.77385C10.2786 5.64981 10.0234 5.43976 9.84383 5.17028C9.66426 4.90079 9.56841 4.58396 9.56841 4.25986C9.56841 4.04463 9.6107 3.83151 9.69285 3.63266C9.775 3.43382 9.89542 3.25315 10.0472 3.10097C10.199 2.9488 10.3792 2.82809 10.5775 2.74575C10.7759 2.66341 10.9884 2.62106 11.2031 2.62109ZM24.3973 2.81943H27.2146V10.8426L30.4077 7.13983H33.8619L30.1641 11.3517L33.7841 16.2453H30.243L27.2522 11.7483H27.2152V16.2447H24.3978L24.3973 2.81943ZM14.174 7.14484H16.8795V8.38811H16.918C17.1882 7.92387 17.5791 7.54195 18.049 7.28312C18.5188 7.0243 19.05 6.89829 19.5857 6.91855C22.4427 6.91855 22.9686 8.80332 22.9686 11.2519V16.2409H20.1512V11.8178C20.1512 10.7619 20.1319 9.4048 18.6838 9.4048C17.2194 9.4048 16.9934 10.5545 16.9934 11.741V16.2397H14.176L14.174 7.14484Z" fill="white"/>
<path d="M39.7951 10.6343C39.8005 10.4051 39.7595 10.1772 39.6744 9.96439C39.5894 9.75159 39.4621 9.55831 39.3004 9.39626C39.1387 9.23421 38.9458 9.10676 38.7336 9.02164C38.5213 8.93652 38.2939 8.8955 38.0654 8.90106C37.5731 8.87035 37.0885 9.03484 36.7161 9.35906C36.3436 9.68328 36.1132 10.1413 36.0744 10.6343H39.7951ZM42.1817 14.6657C41.7135 15.235 41.1249 15.6927 40.4586 16.0058C39.7922 16.3188 39.0648 16.4793 38.3289 16.4757C35.5115 16.4757 33.2559 14.5901 33.2559 11.6701C33.2559 8.7501 35.5112 6.86533 38.3289 6.86533C40.9623 6.86533 42.6137 8.74863 42.6137 11.6701V12.5558H36.0744C36.1558 13.0582 36.4156 13.5141 36.8058 13.8396C37.1959 14.165 37.6903 14.3382 38.1977 14.327C38.5987 14.3245 38.9928 14.2215 39.3439 14.0273C39.6951 13.8332 39.9923 13.554 40.2084 13.2153L42.1817 14.6657ZM48.4862 9.34275C47.0775 9.34275 46.2323 10.2859 46.2323 11.6601C46.2323 13.0343 47.0772 13.9783 48.4862 13.9783C49.8952 13.9783 50.7422 13.0367 50.7422 11.6601C50.7422 10.2835 49.8966 9.34275 48.4862 9.34275ZM53.3359 16.2395H50.7422V15.033H50.7037C50.3783 15.4718 49.9562 15.8294 49.4704 16.0779C48.9846 16.3263 48.4481 16.459 47.9028 16.4654C45.1957 16.4654 43.4125 14.5065 43.4125 11.7363C43.4125 9.19209 44.9906 6.85592 47.5846 6.85592C48.7506 6.85592 49.8397 7.17578 50.4786 8.06241H50.5156V2.8183H53.3356L53.3359 16.2395ZM72.3559 16.2447H69.5385V11.8208C69.5385 10.7658 69.5197 9.40779 68.0732 9.40779C66.6058 9.40779 66.3813 10.5572 66.3813 11.744V16.2445H63.5639V7.14695H66.2686V8.39022H66.3065C66.5771 7.92617 66.9683 7.54443 67.4382 7.28564C67.9081 7.02685 68.4393 6.90071 68.975 6.92066C71.8306 6.92066 72.3571 8.80395 72.3571 11.254L72.3559 16.2447ZM60.385 5.90338C60.0616 5.90344 59.7455 5.80735 59.4766 5.62726C59.2077 5.44718 58.9981 5.19118 58.8743 4.89165C58.7505 4.59212 58.718 4.26251 58.7811 3.94449C58.8441 3.62648 58.9997 3.33435 59.2284 3.10504C59.457 2.87573 59.7483 2.71954 60.0654 2.65623C60.3825 2.59292 60.7113 2.62533 61.0101 2.74935C61.3088 2.87338 61.5642 3.08345 61.7439 3.35301C61.9236 3.62256 62.0196 3.9395 62.0196 4.26373C62.0197 4.47902 61.9774 4.6922 61.8953 4.89111C61.8132 5.09002 61.6928 5.27076 61.541 5.42302C61.3892 5.57527 61.209 5.69606 61.0106 5.77848C60.8123 5.8609 60.5997 5.90334 60.385 5.90338ZM61.7936 16.2447H58.9733V7.14695H61.7936V16.2447ZM73.7605 0.00129846H57.5576C57.1898 -0.00286285 56.8355 0.139543 56.5724 0.397223C56.3093 0.654902 56.159 1.00677 56.1545 1.37552V17.6893C56.1588 18.0582 56.309 18.4103 56.5721 18.6683C56.8352 18.9262 57.1896 19.0689 57.5576 19.065H73.7605C74.1292 19.0696 74.4846 18.9273 74.7487 18.6694C75.0129 18.4115 75.1641 18.059 75.1692 17.6893V1.37434C75.1639 1.00487 75.0126 0.652595 74.7485 0.394921C74.4843 0.137248 74.129 -0.00475152 73.7605 0.000121398M77.333 16.5999C76.9902 16.6032 76.6627 16.7425 76.4221 16.9873C76.1814 17.2321 76.0473 17.5625 76.0489 17.9062C76.0506 18.2499 76.1879 18.579 76.4309 18.8214C76.6738 19.0639 77.0027 19.2 77.3455 19.2C77.6883 19.2 78.0171 19.0639 78.2601 18.8214C78.5031 18.579 78.6404 18.2499 78.642 17.9062C78.6437 17.5625 78.5095 17.2321 78.2689 16.9873C78.0283 16.7425 77.7007 16.6032 77.3579 16.5999H77.333ZM77.333 19.0512C77.1082 19.0549 76.8873 18.9917 76.6983 18.8696C76.5092 18.7475 76.3606 18.5719 76.2711 18.3651C76.1816 18.1582 76.1553 17.9294 76.1955 17.7076C76.2357 17.4857 76.3405 17.2808 76.4969 17.1188C76.6532 16.9567 76.854 16.8448 77.0737 16.7971C77.2935 16.7494 77.5225 16.7682 77.7316 16.851C77.9408 16.9338 78.1207 17.0769 78.2488 17.2623C78.3768 17.4476 78.4471 17.6669 78.4509 17.8923V17.9115C78.4572 18.2072 78.3461 18.4933 78.142 18.7069C77.9379 18.9206 77.6576 19.0442 77.3627 19.0506H77.3333" fill="white"/>
</svg>
