<svg width="92" height="15" viewBox="0 0 92 15" fill="none" xmlns="http://www.w3.org/2000/svg">
<path d="M11.4697 13.1056C11.4361 13.072 11.4004 13.0414 11.38 13.022C10.9722 13.2392 10.5796 13.4808 10.1636 13.6541C8.37532 14.3964 6.58495 14.3933 4.81192 13.596C3.51211 13.0151 2.43794 12.0251 1.75321 10.7769C1.29728 9.97446 1.02139 9.08244 0.944689 8.16272C0.944689 8.11072 0.925317 8.06076 0.916141 8.00673V7.14009C0.954885 6.86685 0.985472 6.59054 1.03645 6.31933C1.28363 5.02749 1.90751 3.83766 2.82953 2.89967C3.75156 1.96168 4.9305 1.31747 6.21791 1.04815C7.88389 0.712715 9.46626 0.960471 10.9293 1.83628C12.5933 2.83342 13.6485 4.28835 14.0553 6.18475C14.402 7.79975 14.1573 9.34542 13.3539 10.7891C13.1999 11.0675 13.1959 11.0644 13.4253 11.2989L15.0239 12.8894C15.0239 12.8191 15.0321 12.7477 15.0311 12.6753C15.0311 10.8483 15.0311 9.0212 15.0311 7.19413C15.0311 7.14213 15.025 7.09217 15.0209 7.03711V2.09423C15.0214 2.04175 15.0183 1.98929 15.0117 1.93722C14.9277 1.39549 14.6519 0.901935 14.2346 0.546398C13.8173 0.190861 13.2863 -0.00302266 12.7381 3.56354e-05C9.24196 0.0173683 5.74585 0.0102303 2.24974 0.013289C2.15589 0.00901634 2.06185 0.0114021 1.96834 0.0204267C1.4246 0.0946459 0.926402 0.364055 0.566611 0.778434C0.206819 1.19281 0.00998608 1.72388 0.0128013 2.27266C0.0250361 4.843 0.0128013 7.41333 0.0128013 9.98367C0.0128013 10.0469 0.0199384 10.1111 0.0240166 10.1754C0.014285 10.2266 0.00747681 10.2783 0.00362514 10.3303C0.00362514 11.146 -0.00453143 11.9616 0.00362514 12.7722C0.00322247 13.0633 0.0602539 13.3515 0.171452 13.6205C0.28265 13.8895 0.445829 14.1339 0.65164 14.3397C0.857451 14.5455 1.10185 14.7087 1.37083 14.8199C1.63981 14.9311 1.92809 14.9881 2.21915 14.9877C5.73361 15.001 9.24807 14.9949 12.7625 15C12.9464 15.0011 13.1297 14.9788 13.308 14.9337L13.0633 14.691L11.4697 13.1056Z" fill="url(#paint0_linear_35_1730)"/>
<path d="M7.51292 12.4356C10.24 12.4356 12.4507 10.2249 12.4507 7.49784C12.4507 4.77078 10.24 2.56006 7.51292 2.56006C4.78585 2.56006 2.57513 4.77078 2.57513 7.49784C2.57513 10.2249 4.78585 12.4356 7.51292 12.4356Z" fill="#EC613E"/>
<path d="M9.8884 9.28011C9.87821 9.0191 9.86087 8.75911 9.85476 8.4981C9.85476 8.32273 9.83436 8.14737 9.82825 7.972C9.81193 7.48159 9.78848 6.99219 9.76605 6.50178C9.75688 6.29175 9.74872 6.08274 9.73343 5.8727C9.72443 5.7841 9.69545 5.6987 9.64864 5.62293C9.60184 5.54716 9.53845 5.48301 9.46324 5.43531C9.36283 5.3633 9.24102 5.32736 9.11761 5.33335L6.43614 5.3252C6.25363 5.3252 6.07011 5.3252 5.88761 5.3252C5.74389 5.32974 5.60676 5.38648 5.50186 5.48481C5.39696 5.58315 5.33148 5.71633 5.31767 5.85945C5.30237 6.05827 5.29218 6.25708 5.28198 6.45692C5.25343 7.0289 5.22591 7.6019 5.19634 8.1749C5.18614 8.38799 5.16983 8.6021 5.16269 8.81519C5.14641 8.99959 5.14028 9.18475 5.14434 9.36983C5.14807 9.45617 5.17253 9.54034 5.21565 9.61523C5.25878 9.69012 5.3193 9.75352 5.39209 9.80009C5.4987 9.88026 5.62998 9.92066 5.76322 9.91428L9.26137 9.92652C9.34661 9.93121 9.43187 9.91754 9.51138 9.88644C9.59089 9.85534 9.6628 9.80754 9.72224 9.74626C9.78169 9.68498 9.82728 9.61165 9.85595 9.53123C9.88462 9.45081 9.89568 9.36518 9.8884 9.28011ZM8.5497 6.71793C8.49127 6.87824 8.39551 7.02233 8.27034 7.13828C8.14517 7.25423 7.99419 7.33871 7.82989 7.38473L7.77075 7.4041C7.60219 7.43736 7.42853 7.43493 7.26097 7.39696C7.09477 7.35666 6.9402 7.27831 6.80944 7.16808C6.67869 7.05786 6.57533 6.91876 6.5075 6.76177C6.44417 6.62607 6.41478 6.47701 6.42186 6.32743C6.42183 6.27457 6.44233 6.22375 6.47904 6.18571C6.51575 6.14767 6.5658 6.12537 6.61864 6.12352C6.67272 6.12352 6.72459 6.145 6.76283 6.18324C6.80107 6.22149 6.82255 6.27335 6.82255 6.32743C6.82127 6.50194 6.88653 6.67038 7.00506 6.79847C7.09258 6.89471 7.20527 6.96454 7.3304 7.00008C7.45553 7.03563 7.58811 7.03547 7.71316 6.99962C7.8382 6.96377 7.95072 6.89367 8.03802 6.79722C8.12531 6.70078 8.18388 6.58185 8.20713 6.45386C8.21422 6.41721 8.21832 6.38004 8.21936 6.34273C8.22043 6.29961 8.23513 6.25795 8.26137 6.22372C8.2876 6.18949 8.32401 6.16446 8.36536 6.15223C8.40671 6.13999 8.45088 6.14118 8.49151 6.15562C8.53215 6.17007 8.56716 6.19702 8.59151 6.23261L8.60272 6.24791C8.63418 6.40648 8.61492 6.57092 8.54767 6.71793H8.5497Z" fill="white"/>
<path d="M22.1455 3.43605V6.39281H26.6489V3.43605C26.6489 3.01531 26.7441 2.69924 26.9344 2.48785C27.0283 2.38347 27.144 2.30103 27.2734 2.24641C27.4027 2.19178 27.5425 2.16631 27.6828 2.17179C27.8247 2.16632 27.9662 2.19144 28.0976 2.24544C28.229 2.29945 28.3473 2.38108 28.4444 2.48479C28.6395 2.69279 28.7367 3.00987 28.736 3.43605V11.5529C28.736 11.979 28.6378 12.2975 28.4413 12.5082C28.3449 12.6121 28.2273 12.6941 28.0964 12.7487C27.9655 12.8032 27.8245 12.829 27.6828 12.8243C27.5414 12.8303 27.4005 12.8048 27.2703 12.7494C27.1401 12.694 27.0239 12.6102 26.9303 12.5041C26.7427 12.2907 26.6489 11.9736 26.6489 11.5529V8.08632H22.1455V11.5529C22.1455 11.979 22.0469 12.2975 21.8498 12.5082C21.7534 12.6121 21.6357 12.6941 21.5049 12.7487C21.374 12.8032 21.2329 12.829 21.0912 12.8243C20.9499 12.8303 20.809 12.8048 20.6788 12.7494C20.5486 12.694 20.4324 12.6102 20.3388 12.5041C20.1519 12.2907 20.0584 11.9736 20.0584 11.5529V3.43605C20.0584 3.01531 20.1509 2.69924 20.3357 2.48785C20.4302 2.38223 20.547 2.29904 20.6777 2.24435C20.8084 2.18967 20.9497 2.16488 21.0912 2.17179C21.2334 2.1663 21.375 2.19141 21.5066 2.24542C21.6381 2.29942 21.7566 2.38105 21.8539 2.48479C22.0476 2.69279 22.1448 3.00987 22.1455 3.43605Z" fill="#403689"/>
<path d="M35.51 2.17164C36.5785 2.17164 37.4962 2.38813 38.2629 2.82111C39.0189 3.24381 39.6263 3.88927 40.0023 4.66959C40.3958 5.46826 40.5926 6.40626 40.5926 7.48361C40.6015 8.22012 40.4924 8.9533 40.2694 9.6553C40.0685 10.2815 39.7381 10.8585 39.2998 11.3488C38.8615 11.8313 38.3179 12.2063 37.7113 12.4448C36.3153 12.954 34.7839 12.9504 33.3903 12.4346C32.7816 12.1943 32.2358 11.818 31.7947 11.3345C31.3559 10.8398 31.0269 10.2578 30.8292 9.62675C30.606 8.92961 30.4955 8.20131 30.5019 7.46934C30.4941 6.72956 30.6091 5.99361 30.8424 5.29153C31.0492 4.66604 31.3859 4.09134 31.8304 3.60516C32.2682 3.13623 32.8064 2.77235 33.4046 2.54073C34.0766 2.28523 34.7912 2.15997 35.51 2.17164ZM38.476 7.47341C38.4916 6.80186 38.3669 6.13443 38.1099 5.5138C37.8982 4.99899 37.5343 4.56111 37.0669 4.25871C36.5999 3.96895 36.0596 3.81927 35.51 3.82743C35.1136 3.82469 34.721 3.90564 34.3579 4.06499C34.004 4.22082 33.6902 4.45511 33.4403 4.75014C33.1643 5.08896 32.9591 5.47968 32.8367 5.8992C32.6829 6.40813 32.6083 6.93771 32.6155 7.46934C32.6084 8.00698 32.683 8.54258 32.8367 9.05783C32.9613 9.48907 33.1742 9.88973 33.4617 10.2344C33.7147 10.5341 34.0318 10.7732 34.3895 10.9338C34.8091 11.1116 35.2644 11.189 35.7191 11.1597C36.1738 11.1305 36.6154 10.9956 37.0088 10.7656C37.481 10.4701 37.853 10.0391 38.0763 9.52887C38.3427 8.97082 38.476 8.28431 38.476 7.46934V7.47341Z" fill="#403689"/>
<path d="M46.3737 8.63577H44.462V11.5528C44.462 11.9701 44.3637 12.2862 44.1673 12.501C44.0702 12.6026 43.9535 12.6835 43.8243 12.7387C43.695 12.794 43.5559 12.8225 43.4154 12.8225C43.2748 12.8225 43.1357 12.794 43.0065 12.7387C42.8772 12.6835 42.7605 12.6026 42.6634 12.501C42.4718 12.2875 42.3759 11.9749 42.3759 11.563V3.62356C42.3759 3.16407 42.4813 2.83611 42.692 2.63967C42.9027 2.44323 43.2375 2.34467 43.6963 2.34399H46.3737C47.1648 2.34399 47.7739 2.40483 48.2007 2.5265C48.6052 2.63589 48.9792 2.83682 49.2937 3.11377C49.6014 3.38723 49.8407 3.72912 49.9921 4.11193C50.1571 4.53404 50.2385 4.98421 50.2317 5.43737C50.2317 6.48685 49.9085 7.28177 49.2621 7.82215C48.6157 8.36252 47.6529 8.63373 46.3737 8.63577ZM45.8639 3.91413H44.462V7.06257H45.8679C46.2849 7.07254 46.7011 7.02031 47.1026 6.90759C47.4032 6.82431 47.6684 6.64535 47.8581 6.39781C48.0416 6.12803 48.1328 5.80611 48.1181 5.48019C48.1341 5.07182 47.9891 4.6735 47.7144 4.3709C47.4153 4.06639 46.7998 3.91413 45.8679 3.91413H45.8639Z" fill="#403689"/>
<path d="M59.8025 9.55644C59.8106 10.1515 59.6428 10.7356 59.3203 11.2357C58.9743 11.7542 58.4842 12.16 57.9102 12.4031C57.2917 12.6838 56.5583 12.8242 55.71 12.8242C54.6904 12.8242 53.852 12.6321 53.1947 12.2481C52.7307 11.976 52.339 11.5962 52.0528 11.1409C51.7605 10.68 51.614 10.2317 51.6133 9.79604C51.6133 9.67407 51.6376 9.55331 51.6848 9.44084C51.732 9.32836 51.8012 9.22643 51.8882 9.14099C51.9753 9.05555 52.0785 8.98832 52.1918 8.94324C52.3051 8.89816 52.4263 8.87613 52.5483 8.87843C52.7549 8.87319 52.9554 8.94893 53.107 9.08948C53.2824 9.26569 53.4156 9.47938 53.4965 9.71448C53.6075 10.0032 53.7501 10.2788 53.9217 10.5363C54.088 10.7679 54.309 10.9549 54.565 11.0807C54.841 11.2241 55.2039 11.2958 55.6539 11.2958C56.2731 11.2958 56.7758 11.1517 57.1618 10.8635C57.5479 10.5753 57.741 10.2158 57.741 9.78483C57.7473 9.63209 57.7229 9.47963 57.6691 9.33653C57.6153 9.19342 57.5333 9.0626 57.428 8.95184C57.2014 8.7272 56.9246 8.55978 56.6205 8.46346C56.2901 8.35131 55.8483 8.23202 55.295 8.1056C54.6565 7.96458 54.0338 7.75964 53.4363 7.49385C52.9657 7.28428 52.5567 6.95745 52.2485 6.54463C51.9556 6.1436 51.8091 5.64605 51.8091 5.05198C51.801 4.51206 51.9633 3.98332 52.273 3.54098C52.6108 3.0767 53.0778 2.72211 53.6158 2.52141C54.2752 2.27164 54.9765 2.15118 55.6814 2.1666C56.2374 2.15522 56.7916 2.23478 57.3219 2.40212C57.7411 2.53564 58.1311 2.74775 58.471 3.02711C58.7467 3.25083 58.9739 3.52836 59.1388 3.84277C59.2725 4.10148 59.3444 4.38765 59.3488 4.67882C59.3488 4.92761 59.2549 5.16722 59.0858 5.34969C59.0055 5.44529 58.9049 5.52173 58.7913 5.57342C58.6777 5.62511 58.554 5.65074 58.4292 5.64843C58.231 5.6628 58.0351 5.59872 57.8837 5.47001C57.7199 5.29511 57.5826 5.09727 57.4759 4.88273C57.3191 4.53474 57.0892 4.22457 56.8019 3.97327C56.5389 3.75509 56.1171 3.64599 55.5366 3.64599C54.9983 3.64599 54.563 3.76426 54.2336 4.0008C53.9043 4.23734 53.7381 4.5218 53.7381 4.8552C53.7336 5.04668 53.7928 5.23423 53.9064 5.38844C54.0313 5.54925 54.1895 5.68108 54.3703 5.77486C54.5599 5.88014 54.7602 5.9649 54.9677 6.02771C55.1716 6.08888 55.502 6.17861 55.9649 6.29484C56.4983 6.4178 57.0251 6.56787 57.5432 6.74447C57.9693 6.88686 58.3736 7.08795 58.7442 7.34194C59.0701 7.57127 59.3353 7.87639 59.5171 8.231C59.7178 8.6433 59.8158 9.09806 59.8025 9.55644Z" fill="#403689"/>
<path d="M63.674 3.43599V6.39274H68.1784V3.43599C68.1784 3.01524 68.2733 2.69918 68.4629 2.48779C68.5569 2.38351 68.6726 2.30116 68.8019 2.24654C68.9313 2.19192 69.071 2.16638 69.2113 2.17172C69.3534 2.16624 69.495 2.19135 69.6266 2.24535C69.7582 2.29935 69.8766 2.38099 69.9739 2.48473C70.1676 2.69272 70.2648 3.00981 70.2655 3.43599V11.5528C70.2655 11.979 70.1669 12.2974 69.9698 12.5081C69.8734 12.6121 69.7558 12.6941 69.6249 12.7486C69.494 12.8031 69.353 12.8289 69.2113 12.8242C69.0699 12.8303 68.929 12.8047 68.7988 12.7493C68.6686 12.6939 68.5525 12.6101 68.4588 12.504C68.2719 12.2906 68.1784 11.9735 68.1784 11.5528V8.08625H63.674V11.5528C63.674 11.979 63.5758 12.2974 63.3793 12.5081C63.2827 12.6121 63.1649 12.6941 63.0338 12.7486C62.9028 12.8031 62.7616 12.8289 62.6197 12.8242C62.4785 12.8303 62.3377 12.8048 62.2077 12.7494C62.0777 12.694 61.9617 12.6101 61.8683 12.504C61.6807 12.2906 61.5869 11.9735 61.5869 11.5528V3.43599C61.5869 3.01524 61.6794 2.69918 61.8642 2.48779C61.9588 2.38234 62.0757 2.29926 62.2064 2.24459C62.337 2.18992 62.4782 2.16503 62.6197 2.17172C62.7619 2.16624 62.9035 2.19135 63.0351 2.24535C63.1666 2.29935 63.2851 2.38099 63.3824 2.48473C63.5775 2.69272 63.6747 3.00981 63.674 3.43599Z" fill="#403689"/>
<path d="M77.0384 2.17173C78.1069 2.17173 79.0245 2.38822 79.7912 2.8212C80.5449 3.24504 81.15 3.89036 81.5245 4.66968C81.918 5.46834 82.1148 6.40635 82.1148 7.48369C82.1242 8.22024 82.0151 8.9535 81.7916 9.65538C81.5907 10.2816 81.2604 10.8586 80.822 11.3489C80.3839 11.8311 79.8407 12.2061 79.2345 12.4449C77.8382 12.9541 76.3065 12.9505 74.9126 12.4347C74.3041 12.1944 73.7587 11.8181 73.318 11.3346C72.879 10.8399 72.5496 10.2579 72.3514 9.62683C72.1282 8.92969 72.0177 8.20139 72.0241 7.46942C72.0161 6.72955 72.1316 5.99352 72.3657 5.29162C72.5721 4.66618 72.9084 4.09148 73.3526 3.60525C73.7906 3.13653 74.3287 2.77269 74.9269 2.54082C75.6008 2.28465 76.3175 2.15938 77.0384 2.17173ZM80.0043 7.4735C80.0199 6.80194 79.8953 6.13452 79.6383 5.51388C79.4265 4.99907 79.0626 4.56119 78.5953 4.25879C78.1284 3.96877 77.588 3.81907 77.0384 3.82751C76.641 3.82354 76.2473 3.90381 75.8832 4.06303C75.5291 4.21852 75.2153 4.45287 74.9656 4.74819C74.6893 5.08695 74.4837 5.47767 74.361 5.89724C74.2071 6.40618 74.1325 6.93575 74.1397 7.46738C74.1327 8.00502 74.2073 8.54062 74.361 9.05587C74.486 9.48695 74.6988 9.88752 74.986 10.2325C75.2391 10.532 75.5562 10.771 75.9138 10.9319C76.3336 11.11 76.7893 11.1875 77.2444 11.1583C77.6995 11.1291 78.1415 10.994 78.5351 10.7637C79.0075 10.4685 79.3796 10.0374 79.6026 9.52691C79.8704 8.97023 80.0043 8.2844 80.0043 7.46942V7.4735Z" fill="#403689"/>
<path d="M87.9018 8.63577H85.9911V11.5528C85.9911 11.9701 85.8925 12.2862 85.6954 12.501C85.5983 12.6026 85.4816 12.6835 85.3524 12.7387C85.2231 12.794 85.084 12.8225 84.9435 12.8225C84.8029 12.8225 84.6638 12.794 84.5346 12.7387C84.4053 12.6835 84.2886 12.6026 84.1915 12.501C84.0033 12.2923 83.9091 11.9806 83.9091 11.566V3.62356C83.9091 3.16407 84.0145 2.83611 84.2252 2.63967C84.4359 2.44323 84.771 2.34467 85.2305 2.34399H87.9069C88.6987 2.34399 89.3077 2.40483 89.7339 2.5265C90.1367 2.63637 90.5089 2.83729 90.8218 3.11377C91.1295 3.38747 91.369 3.72928 91.5212 4.11193C91.6854 4.53425 91.7664 4.98431 91.7598 5.43737C91.7598 6.48685 91.4366 7.28177 90.7902 7.82215C90.1438 8.36252 89.181 8.63373 87.9018 8.63577ZM87.392 3.91413H85.9911V7.06257H87.3961C87.8127 7.07239 88.2285 7.02016 88.6297 6.90759C88.9303 6.82431 89.1955 6.64535 89.3852 6.39781C89.5682 6.12781 89.6594 5.80605 89.6452 5.48019C89.6623 5.07189 89.5184 4.67322 89.2445 4.36988C88.9448 4.06605 88.3286 3.91413 87.3961 3.91413H87.392Z" fill="#403689"/>
<defs>
<linearGradient id="paint0_linear_35_1730" x1="-0.00147271" y1="7.49796" x2="15.026" y2="7.49796" gradientUnits="userSpaceOnUse">
<stop offset="0.01" stop-color="#7673DC"/>
<stop offset="0.14" stop-color="#7673DC"/>
<stop offset="1" stop-color="#7673DC"/>
</linearGradient>
</defs>
</svg>
