<svg width="25" height="25" viewBox="0 0 25 25" fill="none" xmlns="http://www.w3.org/2000/svg">
<circle cx="12.5" cy="12.5" r="12.5" fill="#3E3E3E"/>
<g filter="url(#filter0_d_982_2115)">
<path d="M8 5H10V6H8C6.89543 6 6 6.89543 6 8V10H5V8C5 6.34315 6.34315 5 8 5Z" fill="white"/>
<path d="M20 8L20 10L19 10L19 8C19 6.89543 18.1046 6 17 6L15 6L15 5L17 5C18.6569 5 20 6.34315 20 8Z" fill="white"/>
<path d="M17 20L15 20L15 19L17 19C18.1046 19 19 18.1046 19 17L19 15L20 15L20 17C20 18.6569 18.6569 20 17 20Z" fill="white"/>
<path d="M5 17L5 15L6 15L6 17C6 18.1046 6.89543 19 8 19L10 19L10 20L8 20C6.34315 20 5 18.6569 5 17Z" fill="white"/>
<path d="M14.4287 14.4287L17.0001 17.0001" stroke="white"/>
<circle cx="11.8571" cy="11.8571" r="3.35714" stroke="white"/>
</g>
<defs>
<filter id="filter0_d_982_2115" x="4" y="4" width="17" height="17" filterUnits="userSpaceOnUse" color-interpolation-filters="sRGB">
<feFlood flood-opacity="0" result="BackgroundImageFix"/>
<feColorMatrix in="SourceAlpha" type="matrix" values="0 0 0 0 0 0 0 0 0 0 0 0 0 0 0 0 0 0 127 0" result="hardAlpha"/>
<feOffset/>
<feGaussianBlur stdDeviation="0.5"/>
<feComposite in2="hardAlpha" operator="out"/>
<feColorMatrix type="matrix" values="0 0 0 0 0 0 0 0 0 0 0 0 0 0 0 0 0 0 0.25 0"/>
<feBlend mode="normal" in2="BackgroundImageFix" result="effect1_dropShadow_982_2115"/>
<feBlend mode="normal" in="SourceGraphic" in2="effect1_dropShadow_982_2115" result="shape"/>
</filter>
</defs>
</svg>
