<svg width="90" height="90" viewBox="0 0 90 90" fill="none" xmlns="http://www.w3.org/2000/svg">
<g filter="url(#filter0_d_853_1249)">
<path fill-rule="evenodd" clip-rule="evenodd" d="M45 5C22.9086 4.99999 5.00001 22.9086 5 45C5 67.0914 22.9086 85 45 85C67.0914 85 85 67.0914 85 45C85 22.9086 67.0914 5 45 5ZM37.3306 59.2835C38.8927 60.8456 41.4253 60.8457 42.9874 59.2836L58.3263 43.945L42.9874 28.6061C41.4253 27.044 38.8927 27.044 37.3306 28.6061C35.7685 30.1682 35.7685 32.7009 37.3306 34.263L47.0126 43.9449L37.3306 53.6267C35.7685 55.1887 35.7685 57.7214 37.3306 59.2835Z" fill="white" fill-opacity="0.6" shape-rendering="crispEdges"/>
</g>
<defs>
<filter id="filter0_d_853_1249" x="0" y="0" width="90" height="90" filterUnits="userSpaceOnUse" color-interpolation-filters="sRGB">
<feFlood flood-opacity="0" result="BackgroundImageFix"/>
<feColorMatrix in="SourceAlpha" type="matrix" values="0 0 0 0 0 0 0 0 0 0 0 0 0 0 0 0 0 0 127 0" result="hardAlpha"/>
<feOffset/>
<feGaussianBlur stdDeviation="2.5"/>
<feComposite in2="hardAlpha" operator="out"/>
<feColorMatrix type="matrix" values="0 0 0 0 0 0 0 0 0 0 0 0 0 0 0 0 0 0 0.15 0"/>
<feBlend mode="normal" in2="BackgroundImageFix" result="effect1_dropShadow_853_1249"/>
<feBlend mode="normal" in="SourceGraphic" in2="effect1_dropShadow_853_1249" result="shape"/>
</filter>
</defs>
</svg>
