<svg width="90" height="90" viewBox="0 0 90 90" fill="none" xmlns="http://www.w3.org/2000/svg">
<g filter="url(#filter0_d_853_1250)">
<path fill-rule="evenodd" clip-rule="evenodd" d="M45 85C67.0914 85 85 67.0914 85 45C85 22.9086 67.0914 5 45 5C22.9086 5 5 22.9086 5 45C5 67.0914 22.9086 85 45 85ZM52.6694 30.7165C51.1073 29.1544 48.5747 29.1543 47.0126 30.7164L31.6737 46.055L47.0126 61.3939C48.5747 62.956 51.1073 62.956 52.6694 61.3939C54.2315 59.8318 54.2315 57.2991 52.6694 55.737L42.9874 46.055L52.6694 36.3733C54.2315 34.8112 54.2315 32.2786 52.6694 30.7165Z" fill="white" fill-opacity="0.6" shape-rendering="crispEdges"/>
</g>
<defs>
<filter id="filter0_d_853_1250" x="0" y="0" width="90" height="90" filterUnits="userSpaceOnUse" color-interpolation-filters="sRGB">
<feFlood flood-opacity="0" result="BackgroundImageFix"/>
<feColorMatrix in="SourceAlpha" type="matrix" values="0 0 0 0 0 0 0 0 0 0 0 0 0 0 0 0 0 0 127 0" result="hardAlpha"/>
<feOffset/>
<feGaussianBlur stdDeviation="2.5"/>
<feComposite in2="hardAlpha" operator="out"/>
<feColorMatrix type="matrix" values="0 0 0 0 0 0 0 0 0 0 0 0 0 0 0 0 0 0 0.15 0"/>
<feBlend mode="normal" in2="BackgroundImageFix" result="effect1_dropShadow_853_1250"/>
<feBlend mode="normal" in="SourceGraphic" in2="effect1_dropShadow_853_1250" result="shape"/>
</filter>
</defs>
</svg>
