<svg width="16" height="15" viewBox="0 0 16 15" fill="none" xmlns="http://www.w3.org/2000/svg">
<path fill-rule="evenodd" clip-rule="evenodd" d="M3.63086 14.1168C4.17407 14.6621 4.92576 14.9996 5.75627 14.9996H12.1093C13.7662 14.9996 15.1093 13.6564 15.1093 11.9996V5.64649C15.1093 4.81619 14.772 4.06467 14.227 3.52148V11.1168C14.227 12.7736 12.8838 14.1168 11.227 14.1168H3.63086Z" fill="white"/>
<path d="M0.109375 3C0.109375 1.34315 1.45252 0 3.10938 0H10.3448C12.0017 0 13.3448 1.34315 13.3448 3V10.2354C13.3448 11.8923 12.0017 13.2354 10.3448 13.2354H3.10938C1.45252 13.2354 0.109375 11.8923 0.109375 10.2354V3Z" fill="white"/>
</svg>
