<svg width="100" height="20" viewBox="0 0 100 20" fill="none" xmlns="http://www.w3.org/2000/svg">
<path d="M6.95702 18.9041H3.21393V9.58566H0.664062V6.55178H3.21383V4.39295C3.21383 1.83474 4.34159 0 8.07455 0C8.86408 0 10.1036 0.158921 10.1036 0.158921V2.97605H8.80169C7.47516 2.97605 6.95722 3.37901 6.95722 4.49304V6.55178H10.0539L9.77817 9.58566H6.95712L6.95702 18.9041ZM15.5456 6.30933C15.4911 6.30933 15.435 6.31131 15.3794 6.3127C11.9086 6.3127 10.3206 8.91992 10.3206 12.6209C10.3206 17.2832 12.3805 19.1492 15.4066 19.1492C17.1379 19.1492 18.2754 18.4215 18.9668 17.0634V18.9054H22.527V6.55307H18.9668V8.45268C18.4023 7.23052 17.233 6.32381 15.5456 6.30933ZM16.4509 9.22814C17.9086 9.22814 18.7836 10.2436 18.7836 11.9708L18.787 13.7349C18.787 14.899 18.0643 16.2609 16.4509 16.2609C13.9705 16.2609 14.0367 13.5863 14.0367 12.6954C14.0367 9.69885 15.3583 9.22814 16.4509 9.22814ZM23.9648 12.7299C23.9648 11.2288 23.8929 6.31736 30.3005 6.31736C32.8726 6.31736 33.9466 7.13409 33.9466 7.13409L33.0834 9.80788C33.0834 9.80788 32.0107 9.21802 30.6131 9.21802C28.8229 9.21802 27.6807 10.2544 27.6807 12.0778L27.6826 13.3853C27.6826 15.1374 28.7848 16.307 30.6167 16.307C31.89 16.307 33.0636 15.7116 33.0636 15.7116L33.9246 18.3295C33.9246 18.3295 32.9426 19.1514 30.3184 19.1514C24.2174 19.1514 23.9649 14.7448 23.9649 12.7299H23.9648ZM54.8214 6.3127C58.2923 6.3127 59.9054 8.91992 59.9054 12.6209C59.9054 17.2832 57.8454 19.1492 54.8193 19.1492C53.088 19.1492 51.8082 18.4216 51.1168 17.0634V18.9054L47.6014 18.904V0.375578L51.3338 0.0504937V8.28533C51.8725 6.84462 53.6429 6.3127 54.8215 6.3127H54.8214ZM53.775 9.22814C52.3173 9.22814 51.3338 10.2436 51.3338 11.9708L51.3304 13.7349C51.3282 14.899 52.0114 16.2609 53.775 16.2609C56.2555 16.2609 56.1892 13.5863 56.1892 12.6954C56.1892 9.69885 54.8677 9.22814 53.775 9.22814ZM40.4227 6.32292C36.486 6.32292 34.4077 8.46637 34.4077 12.2755V12.9832C34.4077 17.9271 37.3263 19.2 40.8059 19.2C44.188 19.2 45.7188 18.2553 45.7188 18.2553L45.0204 15.7395C45.0204 15.7395 43.2196 16.5047 41.2534 16.5047C39.215 16.5047 38.3384 15.9859 38.1137 14.0296H46.0173V12.0113C46.0173 7.87939 43.6847 6.32282 40.4226 6.32282L40.4227 6.32292ZM40.5176 8.84205C41.8803 8.84205 42.7633 9.67653 42.7148 11.6119H38.1205C38.2002 9.57495 39.1524 8.84215 40.5176 8.84215V8.84205ZM67.3477 6.30596C63.305 6.30596 61.1768 8.58105 61.1768 12.6581C61.1768 18.2521 64.8455 19.1526 67.3545 19.1526C71.0275 19.1526 73.4712 17.1778 73.4712 12.7089C73.4712 8.05766 70.7236 6.30596 67.3477 6.30596ZM67.2969 9.23826C69.0745 9.23826 69.7789 10.5669 69.7789 12.0792V13.3794C69.7789 15.2115 68.7933 16.2712 67.2901 16.2712C65.8843 16.2712 64.8963 15.2799 64.8963 13.3794V12.0792C64.8963 10.0523 66.072 9.23826 67.2969 9.23826ZM80.9069 6.30596C76.8643 6.30596 74.736 8.58105 74.736 12.6581C74.736 18.2521 78.4047 19.1526 80.9137 19.1526C84.5867 19.1526 87.0304 17.1778 87.0304 12.7089C87.0304 8.05766 84.2827 6.30596 80.9069 6.30596ZM80.8561 9.23826C82.6337 9.23826 83.338 10.5669 83.338 12.0792V13.3794C83.338 15.2115 82.3524 16.2712 80.8493 16.2712C79.4435 16.2712 78.4555 15.2799 78.4555 13.3794V12.0792C78.4555 10.0523 79.6312 9.23826 80.8561 9.23826ZM88.4409 18.9041V0.375578L92.1842 0.0505929V12.4696L95.898 6.55188H99.8512L95.9771 12.6809L100 18.9041H96.036L92.1842 12.8613V18.9041H88.4409Z" fill="white"/>
</svg>
